<svg xmlns="http://www.w3.org/2000/svg" viewBox="0 0 64 64">
  <!-- motion lines -->
  <rect x="2" y="28" width="12" height="4" rx="2" fill="#F47A20"/>
  <rect x="4" y="36" width="16" height="4" rx="2" fill="#F47A20"/>
  <rect x="2" y="44" width="20" height="4" rx="2" fill="#F47A20"/>
  <!-- carrot/envelope body -->
  <path d="M16 30 L54 16 C58 15 60 18 58 22 L46 52 C44 56 40 56 38 53 L14 34 C12 32 13 31 16 30 Z" fill="#F47A20"/>
  <!-- envelope flap V -->
  <path d="M26 26 L40 42 L52 22" fill="none" stroke="#ffffff" stroke-width="3" stroke-linecap="round" stroke-linejoin="round"/>
  <!-- green sprouts -->
  <rect x="51" y="6" width="3" height="9" rx="1.5" fill="#5BB13A" transform="rotate(-15 52.5 10.5)"/>
  <rect x="55" y="7" width="3" height="9" rx="1.5" fill="#5BB13A" transform="rotate(10 56.5 11.5)"/>
  <rect x="58" y="10" width="3" height="8" rx="1.5" fill="#5BB13A" transform="rotate(35 59.5 14)"/>
</svg>
