<svg xmlns="http://www.w3.org/2000/svg" viewBox="0 0 64 64" width="64" height="64">
  <!-- Leaves -->
  <path d="M32 20 C 22 8, 10 10, 8 18 C 14 20, 20 22, 26 26 Z" fill="#2E7D32"/>
  <path d="M32 20 C 42 8, 54 10, 56 18 C 50 20, 44 22, 38 26 Z" fill="#3AA144"/>
  <path d="M32 6 C 30 12, 30 18, 32 24 C 34 18, 34 12, 32 6 Z" fill="#2E7D32"/>
  <!-- Carrot body -->
  <path d="M32 22 C 20 24, 14 36, 20 50 C 24 58, 30 60, 32 60 C 34 60, 40 58, 44 50 C 50 36, 44 24, 32 22 Z" fill="#F58220"/>
  <!-- Highlights -->
  <path d="M26 30 L 28 34 M30 40 L 32 44 M34 32 L 36 36 M32 50 L 34 54" stroke="#C25E10" stroke-width="1.5" stroke-linecap="round" fill="none"/>
</svg>
