<svg xmlns="http://www.w3.org/2000/svg" viewBox="0 0 64 64">
  <rect x="2" y="34" width="10" height="4" rx="2" fill="#F58220"/>
  <rect x="6" y="26" width="14" height="4" rx="2" fill="#F58220"/>
  <rect x="4" y="42" width="12" height="4" rx="2" fill="#F58220"/>
  <path d="M18 22 L52 18 C58 17.5 60 22 56 28 L40 50 C36 56 30 56 26 50 L18 38 C14 32 14 22.5 18 22 Z" fill="#F58220"/>
  <path d="M22 24 L38 38 L54 22" stroke="#ffffff" stroke-width="2.2" stroke-linecap="round" stroke-linejoin="round" fill="none"/>
  <path d="M48 14 C45 8 50 4 55 6 C56 11 53 15 48 14 Z" fill="#7BC142"/>
  <path d="M52 12 C53 6 59 6 60 11 C60 15 56 17 52 12 Z" fill="#7BC142"/>
</svg>
