<svg xmlns="http://www.w3.org/2000/svg" xmlns:v="https://svgstorm.com"
viewBox = "0 0 1470 1070"
width="1470"
height="1070">
<g fill="None" fill-opacity="0.0" stroke="#FEFEFE" stroke-opacity="1.00" stroke-width="0.3"><path d="
M 0.00 1070.00 
L 1470.00 1070.00
L 1470.00 0.00
L 0.00 0.00
L 0.00 1070.00
M 1118.00 271.00 
C 1110.90 260.00 1120.00 241.03 1120.00 229.00
C 1120.00 217.63 1122.33 207.25 1123.00 196.00
C 1123.32 190.65 1124.25 185.50 1127.00 181.00
C 1132.11 181.99 1138.13 173.55 1144.68 175.34 C 1151.22 177.12 1155.62 180.15 1159.32 186.68 C 1163.02 193.21 1162.06 202.45 1161.00 210.00 C 1159.94 217.55 1158.50 224.61 1157.01 232.01 C 1155.51 239.40 1154.47 247.41 1154.00 255.00 C 1153.53 262.59 1152.98 270.14 1147.75 275.75 C 1142.52 281.36 1135.23 281.90 1128.93 281.07 C 1122.62 280.24 1115.09 272.40 1118.00 271.00
M 1058.00 211.00 
C 1066.40 213.28 1071.34 222.37 1075.25 229.75 C 1079.17 237.12 1085.16 245.00 1088.00 253.00
C 1091.97 264.17 1088.37 278.21 1074.98 279.98 C 1061.58 281.74 1054.38 270.98 1050.25 259.75 C 1046.11 248.53 1038.57 243.43 1035.07 230.93 C 1031.58 218.42 1045.66 207.66 1058.00 211.00
M 1256.00 241.00 
C 1272.31 244.09 1272.71 268.67 1259.92 275.92 C 1247.13 283.17 1238.81 292.36 1225.77 298.77 C 1212.73 305.18 1203.70 319.89 1187.33 317.67 C 1170.96 315.45 1169.70 289.82 1182.70 282.70 C 1195.69 275.58 1203.61 266.15 1216.25 259.25 C 1228.89 252.35 1239.85 237.94 1256.00 241.00
M 1152.00 447.00 
C 1154.24 445.50 1148.90 456.77 1146.23 460.23 C 1143.56 463.69 1139.10 471.41 1136.00 475.00
C 1127.54 487.33 1119.25 498.74 1110.00 510.00
C 1098.73 528.59 1082.69 545.22 1072.00 564.00
C 1069.85 567.77 1067.65 572.26 1064.00 575.00
C 1063.87 575.35 1063.28 575.77 1063.00 576.00
C 1062.19 578.46 1061.66 580.76 1060.00 583.00
C 1056.68 588.89 1052.06 597.28 1046.75 602.75 C 1041.43 608.21 1039.61 617.60 1032.00 621.00
C 1031.76 621.32 1032.00 622.00 1032.00 622.00
C 1024.41 633.37 1018.08 644.09 1008.00 655.00
C 1006.43 658.30 1003.44 660.58 1002.00 664.00
C 999.29 670.42 994.60 676.35 990.00 681.00
C 981.08 693.87 971.56 707.01 962.00 719.00
C 950.44 733.50 941.01 752.07 928.00 766.00
C 927.62 766.81 927.39 768.08 927.00 769.00
C 923.50 777.20 915.76 787.52 910.00 792.00
C 899.57 805.13 891.01 820.25 880.00 833.00
C 879.20 834.41 878.77 836.55 878.00 838.00
C 874.18 845.14 868.24 852.10 863.00 858.00
C 846.94 876.07 838.57 894.41 817.75 909.75 C 796.94 925.10 777.65 935.47 750.93 940.93 C 724.20 946.39 692.57 935.87 668.00 928.00
C 656.18 924.21 647.90 917.91 639.00 909.00
C 635.97 906.51 633.02 903.99 630.00 902.00
C 615.05 892.16 601.94 870.51 594.00 855.00
C 593.32 853.67 592.49 852.40 592.00 851.00
C 589.58 847.31 585.89 844.18 584.00 840.00
C 581.48 834.42 579.30 828.67 575.00 824.00
C 574.76 823.74 574.13 823.35 574.00 823.00
C 566.31 817.22 557.28 800.67 554.00 792.00
C 552.70 789.86 551.41 787.28 550.00 785.00
C 542.83 773.42 536.68 760.57 528.00 750.00
C 524.93 746.27 522.49 742.29 520.00 738.00
C 511.31 723.06 501.66 707.63 491.75 693.25 C 481.83 678.88 472.76 662.36 462.00 649.00
C 457.90 643.91 445.92 630.89 447.00 625.00
C 446.75 624.74 446.26 624.25 446.00 624.00
C 438.55 616.86 433.50 600.61 430.00 591.00
C 428.07 585.71 425.51 580.43 424.00 575.00
C 420.82 567.18 416.63 557.85 416.00 549.00
C 415.91 547.68 416.00 546.32 416.00 545.00
C 416.00 544.50 416.00 544.00 416.00 544.00
C 414.69 542.73 414.67 541.66 414.00 540.00
C 410.08 530.37 409.42 524.64 409.00 513.00 C 408.59 501.36 395.51 503.67 385.00 504.00 C 374.49 504.33 363.65 503.78 353.00 504.00 C 342.35 504.22 330.65 503.75 320.00 504.00 C 309.35 504.25 298.52 503.55 288.00 504.00 C 277.48 504.45 265.20 503.08 255.00 504.00 C 244.80 504.92 240.76 496.68 233.00 495.00
C 227.53 481.89 227.46 465.99 234.00 453.00
C 234.95 458.52 240.46 451.87 241.00 449.00
C 244.86 451.50 247.90 447.35 252.00 448.00
C 252.50 448.04 253.00 448.00 253.00 448.00
C 260.18 442.69 274.71 448.81 284.00 447.00 C 293.29 445.19 306.12 447.97 316.00 447.00 C 325.88 446.03 339.20 447.83 349.00 447.00 C 358.80 446.17 372.01 448.26 381.00 447.00 C 389.99 445.74 406.72 451.63 409.00 442.00
C 409.00 441.50 409.02 440.50 409.00 440.00
C 408.68 431.64 412.95 421.91 416.00 415.00
C 416.77 412.54 417.07 410.42 418.00 408.00
C 419.35 404.48 421.15 396.57 425.00 395.00
C 425.11 394.53 425.00 394.00 425.00 394.00
C 427.46 382.78 441.56 375.00 451.69 370.69 C 461.83 366.39 483.89 365.00 496.00 365.00
C 514.38 365.00 531.89 360.36 550.00 360.00
C 585.21 354.86 621.88 349.01 658.00 349.00
C 658.50 349.00 659.00 349.00 659.00 349.00
C 675.40 341.84 696.04 346.00 715.00 343.00 C 733.96 340.00 754.76 339.89 774.00 337.00 C 793.24 334.11 812.70 333.24 832.22 332.22 C 851.74 331.20 869.64 327.37 889.02 326.02 C 908.40 324.68 929.54 323.08 949.00 321.00 C 968.46 318.92 984.95 316.19 1004.01 315.01 C 1023.06 313.82 1045.16 310.18 1064.00 312.00
C 1088.66 312.00 1116.38 306.50 1137.69 321.31 C 1159.01 336.11 1166.90 351.49 1170.00 377.00 C 1173.10 402.51 1160.77 424.68 1152.00 447.00
M 352.00 640.00 
C 342.12 648.12 327.01 645.11 314.00 645.00 C 300.99 644.89 284.03 646.33 271.00 645.00 C 257.97 643.67 240.53 648.90 229.00 644.00
C 228.50 644.00 227.49 644.06 227.00 644.00
C 206.32 641.55 199.62 616.85 211.00 602.00
C 214.96 595.19 222.02 590.89 230.00 590.00
C 261.64 586.47 296.63 594.06 328.00 590.00 C 359.37 585.94 376.96 619.50 352.00 640.00
M 431.00 731.00 
C 433.86 731.89 436.61 733.71 439.00 735.00
C 445.14 738.31 448.44 741.55 451.00 748.00
C 454.18 753.89 454.90 760.71 454.00 768.00
C 451.23 790.32 427.20 790.60 408.00 790.00 C 388.80 789.40 359.50 790.07 339.00 790.00 C 318.50 789.93 290.14 789.60 270.00 790.00 C 249.86 790.41 226.50 792.87 215.08 775.92 C 203.67 758.97 214.48 735.77 232.00 732.00
C 233.54 731.67 235.52 731.20 237.00 731.00
C 251.68 727.19 269.24 730.83 285.00 730.00 C 300.76 729.17 318.14 729.87 334.00 730.00 C 349.86 730.13 367.35 728.82 383.00 730.00 C 398.65 731.18 416.67 726.53 431.00 731.00 Z"/>
</g>
<g fill="None" fill-opacity="0.0" stroke="#E6F7D6" stroke-opacity="1.00" stroke-width="0.3"><path d="
M 1123.00 196.00 
C 1125.57 178.42 1155.59 168.34 1160.00 190.00
C 1162.65 203.02 1157.12 218.91 1155.67 231.67 C 1154.22 244.43 1153.68 258.62 1148.69 270.69 C 1143.71 282.77 1123.79 279.97 1118.00 271.00
C 1115.09 272.40 1122.62 280.24 1128.93 281.07 C 1135.23 281.90 1142.52 281.36 1147.75 275.75 C 1152.98 270.14 1153.53 262.59 1154.00 255.00 C 1154.47 247.41 1155.51 239.40 1157.01 232.01 C 1158.50 224.61 1159.94 217.55 1161.00 210.00 C 1162.06 202.45 1163.02 193.21 1159.32 186.68 C 1155.62 180.15 1151.22 177.12 1144.68 175.34 C 1138.13 173.55 1132.11 181.99 1127.00 181.00
C 1124.25 185.50 1123.32 190.65 1123.00 196.00 Z"/>
</g>
<g fill="None" fill-opacity="0.0" stroke="#CAE8AC" stroke-opacity="1.00" stroke-width="0.3"><path d="
M 1123.00 196.00 
C 1122.33 207.25 1120.00 217.63 1120.00 229.00
C 1121.93 215.51 1123.02 199.93 1127.78 186.78 C 1132.53 173.62 1156.25 178.14 1160.00 190.00
C 1155.59 168.34 1125.57 178.42 1123.00 196.00 Z"/>
</g>
<g fill="None" fill-opacity="0.0" stroke="#7ABC37" stroke-opacity="1.00" stroke-width="0.3"><path d="
M 1120.00 229.00 
C 1120.00 241.03 1110.90 260.00 1118.00 271.00
C 1123.79 279.97 1143.71 282.77 1148.69 270.69 C 1153.68 258.62 1154.22 244.43 1155.67 231.67 C 1157.12 218.91 1162.65 203.02 1160.00 190.00
C 1156.25 178.14 1132.53 173.62 1127.78 186.78 C 1123.02 199.93 1121.93 215.51 1120.00 229.00 Z"/>
</g>
<g fill="None" fill-opacity="0.0" stroke="#7CBD39" stroke-opacity="1.00" stroke-width="0.3"><path d="
M 1088.00 253.00 
C 1084.65 245.67 1077.52 238.50 1074.08 230.92 C 1070.64 223.35 1065.72 213.99 1058.00 211.00
C 1045.66 207.66 1031.58 218.42 1035.07 230.93 C 1038.57 243.43 1046.11 248.53 1050.25 259.75 C 1054.38 270.98 1061.58 281.74 1074.98 279.98 C 1088.37 278.21 1091.97 264.17 1088.00 253.00 Z"/>
</g>
<g fill="None" fill-opacity="0.0" stroke="#C1E3A2" stroke-opacity="1.00" stroke-width="0.3"><path d="
M 1088.00 253.00 
C 1085.16 245.00 1079.17 237.12 1075.25 229.75 C 1071.34 222.37 1066.40 213.28 1058.00 211.00
C 1065.72 213.99 1070.64 223.35 1074.08 230.92 C 1077.52 238.50 1084.65 245.67 1088.00 253.00 Z"/>
</g>
<g fill="None" fill-opacity="0.0" stroke="#81C146" stroke-opacity="1.00" stroke-width="0.3"><path d="
M 1256.00 241.00 
C 1239.85 237.94 1228.89 252.35 1216.25 259.25 C 1203.61 266.15 1195.69 275.58 1182.70 282.70 C 1169.70 289.82 1170.96 315.45 1187.33 317.67 C 1203.70 319.89 1212.73 305.18 1225.77 298.77 C 1238.81 292.36 1247.13 283.17 1259.92 275.92 C 1272.71 268.67 1272.31 244.09 1256.00 241.00 Z"/>
</g>
<g fill="None" fill-opacity="0.0" stroke="#F9751B" stroke-opacity="1.00" stroke-width="0.3"><path d="
M 1064.00 312.00 
C 1034.44 312.00 1005.55 320.00 976.00 320.00
C 963.29 321.23 949.52 324.00 936.00 324.00
C 930.42 324.00 925.60 325.00 920.00 325.00
C 915.07 325.48 909.62 327.00 904.00 327.00
C 887.45 327.00 870.41 330.56 854.00 332.00
C 844.96 333.84 833.69 335.00 824.00 335.00
C 797.10 335.00 770.72 342.00 744.00 342.00
C 739.07 342.48 733.62 344.00 728.00 344.00
C 711.55 344.00 696.19 348.00 680.00 348.00
C 673.11 348.67 665.71 350.00 658.00 350.00
C 657.50 350.00 656.50 350.00 656.00 350.00
C 646.11 354.20 630.28 354.00 619.00 354.00
C 618.00 354.00 617.00 354.00 616.00 354.00
C 611.07 355.08 605.62 356.00 600.00 356.00
C 591.74 356.00 584.28 358.00 576.00 358.00
C 544.88 361.01 511.92 368.00 480.00 368.00
C 477.33 368.00 474.67 368.00 472.00 368.00
C 463.65 368.81 455.12 372.14 447.00 375.00
C 445.97 375.36 445.03 375.46 444.00 376.00
C 425.56 388.89 418.96 410.49 412.00 430.00
C 411.60 431.72 411.28 433.18 411.00 435.00
C 410.50 438.26 411.21 445.85 409.00 448.00
C 408.74 448.25 408.00 448.00 408.00 448.00
C 401.59 452.74 389.45 447.59 381.00 449.00 C 372.55 450.41 361.06 448.39 352.00 449.00 C 342.94 449.61 332.28 448.77 323.00 449.00 C 313.72 449.23 303.23 449.00 294.00 449.00 C 284.77 449.00 273.90 449.24 265.00 449.00 C 256.10 448.76 248.22 449.68 242.00 453.00
C 231.70 460.66 227.31 474.05 232.00 486.00
C 235.32 492.42 240.39 497.18 247.70 500.31 C 255.00 503.43 266.88 501.73 276.00 502.00 C 285.12 502.27 296.16 502.04 306.00 502.00 C 315.84 501.96 326.73 502.36 337.00 502.00 C 347.27 501.64 356.17 502.95 367.00 502.00 C 377.83 501.05 385.07 504.18 397.00 502.00 C 408.93 499.82 410.97 507.53 411.00 518.00 C 411.03 528.47 415.76 533.82 416.00 544.00
C 416.00 544.00 416.00 544.50 416.00 545.00
C 420.14 548.17 420.65 560.95 422.00 566.00
C 422.61 568.30 423.70 570.60 424.00 573.00
C 426.41 578.92 429.15 584.68 431.00 591.00
C 431.29 591.99 431.68 593.00 432.00 594.00
C 434.84 599.02 437.82 604.31 440.00 610.00
C 441.73 614.52 443.82 619.57 446.00 624.00
C 446.26 624.25 446.75 624.74 447.00 625.00
C 453.26 631.51 457.06 641.35 462.00 649.00
C 472.76 662.36 481.83 678.88 491.75 693.25 C 501.66 707.63 511.31 723.06 520.00 738.00
C 522.86 741.92 525.60 745.78 528.00 750.00
C 536.68 760.57 542.83 773.42 550.00 785.00
C 553.73 789.46 557.14 793.80 560.00 799.00
C 560.66 800.20 561.22 801.71 562.00 803.00
C 565.10 807.12 576.31 818.32 575.00 824.00
C 579.30 828.67 581.48 834.42 584.00 840.00
C 585.97 843.26 589.56 846.81 592.00 850.00
C 612.12 874.50 628.38 900.60 655.00 920.00
C 659.40 922.43 663.70 925.94 668.00 928.00
C 692.57 935.87 724.20 946.39 750.93 940.93 C 777.65 935.47 796.94 925.10 817.75 909.75 C 838.57 894.41 846.94 876.07 863.00 858.00
C 863.38 857.19 863.61 855.92 864.00 855.00
C 867.29 847.29 874.55 839.31 880.00 833.00
C 891.01 820.25 899.57 805.13 910.00 792.00
C 911.10 790.62 911.29 789.41 912.00 788.00
C 913.92 784.20 916.45 779.67 920.00 777.00
C 920.13 776.65 920.76 776.26 921.00 776.00
C 922.50 771.78 925.01 769.20 928.00 766.00
C 941.01 752.07 950.44 733.50 962.00 719.00
C 969.91 702.53 984.74 684.92 997.00 670.00
C 998.50 667.52 1000.43 665.84 1002.00 664.00
C 1003.44 660.58 1006.43 658.30 1008.00 655.00
C 1008.19 654.59 1007.81 653.41 1008.00 653.00
C 1010.53 647.70 1019.24 634.13 1024.00 632.00
C 1024.16 631.56 1024.00 631.00 1024.00 631.00
C 1025.89 621.29 1037.43 611.61 1043.75 603.75 C 1050.07 595.90 1055.29 582.40 1063.00 576.00
C 1063.28 575.77 1063.87 575.35 1064.00 575.00
C 1065.56 570.65 1069.29 567.53 1072.00 564.00
C 1082.69 545.22 1098.73 528.59 1110.00 510.00
C 1114.04 503.33 1118.70 495.64 1123.77 489.77 C 1128.84 483.91 1133.06 474.31 1137.92 468.92 C 1142.79 463.54 1145.87 450.49 1152.00 448.00
C 1152.17 447.57 1152.00 447.00 1152.00 447.00
C 1160.77 424.68 1173.10 402.51 1170.00 377.00 C 1166.90 351.49 1159.01 336.11 1137.69 321.31 C 1116.38 306.50 1088.66 312.00 1064.00 312.00
M 1098.00 357.00 
C 1098.50 357.00 1099.00 357.00 1099.00 357.00
C 1112.93 358.30 1116.01 378.21 1109.00 387.00
C 1103.86 393.45 1096.70 400.11 1090.75 405.75 C 1084.80 411.40 1079.83 421.43 1072.00 424.00
C 1071.80 424.40 1072.00 425.00 1072.00 425.00
C 1065.83 437.62 1050.76 445.73 1041.75 456.75 C 1032.74 467.77 1020.61 477.15 1010.75 487.75 C 1000.90 498.36 989.75 508.36 980.25 519.25 C 970.74 530.14 958.56 540.07 948.75 550.75 C 938.95 561.44 929.14 572.36 918.25 582.25 C 907.35 592.14 898.50 603.99 887.75 613.75 C 877.00 623.51 867.81 636.72 856.00 645.00
C 855.80 645.40 856.00 646.00 856.00 646.00
C 850.93 656.37 837.61 661.73 831.70 671.70 C 825.78 681.67 806.53 689.08 797.25 680.75 C 787.98 672.42 780.50 664.40 771.25 656.75 C 761.99 649.10 754.73 640.56 746.00 632.00
C 732.23 620.47 718.12 601.37 702.00 592.00
C 687.08 583.33 676.63 568.03 663.25 556.75 C 649.86 545.47 637.37 532.37 625.00 520.00
C 622.11 517.53 619.61 514.61 617.00 512.00
C 612.27 507.95 607.35 503.35 603.00 499.00
C 589.51 489.56 578.86 476.62 566.25 465.75 C 553.64 454.89 542.89 442.41 529.92 432.08 C 516.94 421.76 501.02 400.24 521.00 388.00
C 537.55 377.86 549.59 395.25 561.00 405.00
C 564.85 408.29 568.22 412.90 572.00 416.00
C 578.17 420.32 584.48 426.48 590.00 432.00
C 595.81 436.23 601.49 442.49 607.00 448.00
C 610.09 450.64 613.25 453.58 616.00 456.00
C 621.47 460.81 626.91 466.20 632.00 471.00
C 636.62 475.35 641.54 479.54 646.00 484.00
C 654.38 490.75 662.61 498.54 670.75 506.25 C 678.90 513.95 686.81 521.32 694.75 529.25 C 702.69 537.18 710.95 544.07 718.75 552.25 C 726.55 560.42 735.62 566.48 743.75 574.25 C 751.87 582.03 759.74 589.09 767.75 597.25 C 775.77 605.41 784.56 610.87 792.70 619.30 C 800.84 627.74 809.42 637.67 817.75 626.75 C 826.08 615.84 833.21 612.36 840.75 602.75 C 848.29 593.14 856.56 587.98 864.25 579.25 C 871.94 570.51 879.99 564.01 888.00 556.00
C 898.95 543.19 912.16 531.84 924.00 520.00
C 930.71 513.29 937.88 506.17 944.00 499.00
C 950.40 491.51 958.11 484.89 965.00 478.00
C 980.49 459.87 999.21 443.79 1016.00 427.00
C 1023.97 419.03 1032.25 408.18 1040.75 400.75 C 1049.25 393.32 1058.39 381.81 1066.25 375.25 C 1074.11 368.69 1086.60 348.54 1098.00 357.00 Z"/>
</g>
<g fill="None" fill-opacity="0.0" stroke="#FEEBD3" stroke-opacity="1.00" stroke-width="0.3"><path d="
M 659.00 349.00 
C 666.27 349.00 672.86 348.00 680.00 348.00
C 696.19 348.00 711.55 344.00 728.00 344.00
C 732.93 343.52 738.38 342.00 744.00 342.00
C 770.72 342.00 797.10 335.00 824.00 335.00
C 833.44 334.09 843.82 332.90 854.00 332.00
C 870.41 330.56 887.45 327.00 904.00 327.00
C 908.93 326.52 914.38 325.00 920.00 325.00
C 925.60 325.00 930.42 324.00 936.00 324.00
C 948.64 322.78 962.74 320.00 976.00 320.00
C 1005.55 320.00 1034.44 312.00 1064.00 312.00
C 1045.16 310.18 1023.06 313.82 1004.01 315.01 C 984.95 316.19 968.46 318.92 949.00 321.00 C 929.54 323.08 908.40 324.68 889.02 326.02 C 869.64 327.37 851.74 331.20 832.22 332.22 C 812.70 333.24 793.24 334.11 774.00 337.00 C 754.76 339.89 733.96 340.00 715.00 343.00 C 696.04 346.00 675.40 341.84 659.00 349.00 Z"/>
</g>
<g fill="None" fill-opacity="0.0" stroke="#F5AF79" stroke-opacity="1.00" stroke-width="0.3"><path d="
M 936.00 324.00 
C 949.52 324.00 963.29 321.23 976.00 320.00
C 962.74 320.00 948.64 322.78 936.00 324.00 Z"/>
</g>
<g fill="None" fill-opacity="0.0" stroke="#FDBD8D" stroke-opacity="1.00" stroke-width="0.3"><path d="
M 904.00 327.00 
C 909.62 327.00 915.07 325.48 920.00 325.00
C 914.38 325.00 908.93 326.52 904.00 327.00 Z"/>
</g>
<g fill="None" fill-opacity="0.0" stroke="#F5A56F" stroke-opacity="1.00" stroke-width="0.3"><path d="
M 824.00 335.00 
C 833.69 335.00 844.96 333.84 854.00 332.00
C 843.82 332.90 833.44 334.09 824.00 335.00 Z"/>
</g>
<g fill="None" fill-opacity="0.0" stroke="#F6AA75" stroke-opacity="1.00" stroke-width="0.3"><path d="
M 728.00 344.00 
C 733.62 344.00 739.07 342.48 744.00 342.00
C 738.38 342.00 732.93 343.52 728.00 344.00 Z"/>
</g>
<g fill="None" fill-opacity="0.0" stroke="#F9BE92" stroke-opacity="1.00" stroke-width="0.3"><path d="
M 659.00 349.00 
C 659.00 349.00 658.50 349.00 658.00 349.00
C 657.75 349.25 658.00 350.00 658.00 350.00
C 665.71 350.00 673.11 348.67 680.00 348.00
C 672.86 348.00 666.27 349.00 659.00 349.00 Z"/>
</g>
<g fill="None" fill-opacity="0.0" stroke="#FEEED7" stroke-opacity="1.00" stroke-width="0.3"><path d="
M 550.00 360.00 
C 558.97 359.82 567.09 358.00 576.00 358.00
C 584.28 358.00 591.74 356.00 600.00 356.00
C 604.93 355.52 610.38 354.00 616.00 354.00
C 617.00 354.00 618.00 354.00 619.00 354.00
C 630.19 351.54 644.04 350.00 656.00 350.00
C 656.50 350.00 657.50 350.00 658.00 350.00
C 658.00 350.00 657.75 349.25 658.00 349.00
C 621.88 349.01 585.21 354.86 550.00 360.00 Z"/>
</g>
<g fill="None" fill-opacity="0.0" stroke="#F6B786" stroke-opacity="1.00" stroke-width="0.3"><path d="
M 619.00 354.00 
C 630.28 354.00 646.11 354.20 656.00 350.00
C 644.04 350.00 630.19 351.54 619.00 354.00 Z"/>
</g>
<g fill="None" fill-opacity="0.0" stroke="#F9B884" stroke-opacity="1.00" stroke-width="0.3"><path d="
M 600.00 356.00 
C 605.62 356.00 611.07 355.08 616.00 354.00
C 610.38 354.00 604.93 355.52 600.00 356.00 Z"/>
</g>
<g fill="None" fill-opacity="0.0" stroke="#FDFCFB" stroke-opacity="1.00" stroke-width="0.3"><path d="
M 1016.00 427.00 
C 1006.81 442.12 985.44 459.39 971.25 474.25 C 957.05 489.10 940.00 509.64 924.00 520.00
C 912.16 531.84 898.95 543.19 888.00 556.00
C 881.73 563.34 874.80 570.01 867.75 576.75 C 860.71 583.49 854.09 591.52 847.25 598.25 C 840.41 604.97 833.85 612.54 826.75 618.75 C 819.65 624.96 813.06 638.34 804.00 632.00
C 805.43 633.43 806.81 635.43 808.00 637.00
C 815.41 634.98 817.75 624.06 826.00 624.00
C 818.01 636.34 807.10 640.14 798.75 629.25 C 790.40 618.36 779.71 614.65 771.92 605.08 C 764.13 595.51 754.38 589.19 745.75 580.25 C 737.12 571.31 727.74 565.13 719.75 556.25 C 711.76 547.37 701.82 540.48 693.25 531.75 C 684.67 523.03 676.33 515.35 667.75 506.25 C 659.17 497.15 650.31 490.68 641.75 482.25 C 633.20 473.82 623.68 466.53 615.25 457.75 C 606.81 448.97 596.99 442.10 589.08 434.91 C 581.18 427.72 573.82 417.60 563.92 410.08 C 554.01 402.56 547.48 391.76 535.33 387.67 C 523.18 383.59 509.36 401.98 516.00 414.00 C 522.64 426.03 533.63 428.35 541.00 440.00
C 541.67 440.87 542.30 441.30 543.00 442.00
C 554.25 447.78 562.47 460.46 573.30 468.70 C 584.13 476.95 593.73 487.92 604.25 497.75 C 614.76 507.58 624.60 515.00 634.00 526.00
C 638.08 530.77 649.72 538.63 651.00 544.00
C 651.30 544.24 652.00 544.00 652.00 544.00
C 656.55 546.23 659.32 551.92 663.00 555.00
C 668.31 558.79 672.99 563.72 678.00 568.00
C 684.14 573.24 689.74 577.91 695.00 584.00
C 697.24 586.22 699.50 589.95 702.00 592.00
C 718.12 601.37 732.23 620.47 746.00 632.00
C 756.42 640.73 764.60 651.45 775.25 659.75 C 785.90 668.06 795.65 683.20 810.00 683.00
C 826.91 680.39 834.62 661.26 847.25 651.25 C 859.87 641.24 870.52 626.16 882.77 614.77 C 895.02 603.38 906.84 590.81 918.75 578.75 C 930.66 566.70 943.12 554.88 955.00 543.00
C 956.35 541.42 957.69 539.53 959.00 538.00
C 990.05 501.67 1020.15 470.78 1055.00 441.00
C 1060.79 436.05 1065.81 429.33 1072.00 425.00
C 1072.00 425.00 1071.80 424.40 1072.00 424.00
C 1075.77 416.29 1085.73 410.85 1090.23 404.23 C 1094.73 397.61 1104.65 390.73 1109.00 387.00
C 1116.01 378.21 1112.93 358.30 1099.00 357.00
C 1101.12 360.16 1090.32 356.46 1088.00 359.00
C 1088.64 355.05 1095.00 357.85 1098.00 357.00
C 1086.60 348.54 1074.11 368.69 1066.25 375.25 C 1058.39 381.81 1049.25 393.32 1040.75 400.75 C 1032.25 408.18 1023.97 419.03 1016.00 427.00 Z"/>
</g>
<g fill="None" fill-opacity="0.0" stroke="#FFF1CF" stroke-opacity="1.00" stroke-width="0.3"><path d="
M 1099.00 357.00 
C 1099.00 357.00 1098.50 357.00 1098.00 357.00
C 1095.00 357.85 1088.64 355.05 1088.00 359.00
C 1090.32 356.46 1101.12 360.16 1099.00 357.00 Z"/>
</g>
<g fill="None" fill-opacity="0.0" stroke="#F6AF7D" stroke-opacity="1.00" stroke-width="0.3"><path d="
M 550.00 360.00 
C 531.89 360.36 514.38 365.00 496.00 365.00
C 491.32 365.45 484.63 367.55 480.00 368.00
C 511.92 368.00 544.88 361.01 576.00 358.00
C 567.09 358.00 558.97 359.82 550.00 360.00 Z"/>
</g>
<g fill="None" fill-opacity="0.0" stroke="#FFE8D0" stroke-opacity="1.00" stroke-width="0.3"><path d="
M 425.00 394.00 
C 432.03 389.42 436.17 380.08 444.00 376.00
C 445.03 375.46 445.97 375.36 447.00 375.00
C 454.71 370.64 462.41 368.00 472.00 368.00
C 474.67 368.00 477.33 368.00 480.00 368.00
C 484.63 367.55 491.32 365.45 496.00 365.00
C 483.89 365.00 461.83 366.39 451.69 370.69 C 441.56 375.00 427.46 382.78 425.00 394.00 Z"/>
</g>
<g fill="None" fill-opacity="0.0" stroke="#F6AF79" stroke-opacity="1.00" stroke-width="0.3"><path d="
M 447.00 375.00 
C 455.12 372.14 463.65 368.81 472.00 368.00
C 462.41 368.00 454.71 370.64 447.00 375.00 Z"/>
</g>
<g fill="None" fill-opacity="0.0" stroke="#F2A571" stroke-opacity="1.00" stroke-width="0.3"><path d="
M 425.00 394.00 
C 425.00 394.00 425.11 394.53 425.00 395.00
C 423.93 399.65 420.09 404.01 418.00 408.00
C 417.07 410.42 416.77 412.54 416.00 415.00
C 414.44 420.00 413.18 424.88 412.00 430.00
C 418.96 410.49 425.56 388.89 444.00 376.00
C 436.17 380.08 432.03 389.42 425.00 394.00 Z"/>
</g>
<g fill="None" fill-opacity="0.0" stroke="#FFEACF" stroke-opacity="1.00" stroke-width="0.3"><path d="
M 521.00 388.00 
C 497.38 406.84 528.32 426.96 541.00 440.00
C 533.63 428.35 522.64 426.03 516.00 414.00 C 509.36 401.98 523.18 383.59 535.33 387.67 C 547.48 391.76 554.01 402.56 563.92 410.08 C 573.82 417.60 581.18 427.72 589.08 434.91 C 596.99 442.10 606.81 448.97 615.25 457.75 C 623.68 466.53 633.20 473.82 641.75 482.25 C 650.31 490.68 659.17 497.15 667.75 506.25 C 676.33 515.35 684.67 523.03 693.25 531.75 C 701.82 540.48 711.76 547.37 719.75 556.25 C 727.74 565.13 737.12 571.31 745.75 580.25 C 754.38 589.19 764.13 595.51 771.92 605.08 C 779.71 614.65 790.40 618.36 798.75 629.25 C 807.10 640.14 818.01 636.34 826.00 624.00
C 817.75 624.06 815.41 634.98 808.00 637.00
C 806.81 635.43 805.43 633.43 804.00 632.00
C 797.35 625.35 790.21 618.69 783.00 613.00
C 775.00 606.69 768.18 599.18 761.00 592.00
C 721.36 558.13 682.84 520.84 646.00 484.00
C 641.54 479.54 636.62 475.35 632.00 471.00
C 626.10 466.57 621.16 461.31 616.00 456.00
C 613.25 453.58 610.09 450.64 607.00 448.00
C 601.01 442.88 595.47 437.47 590.00 432.00
C 584.48 426.48 578.17 420.32 572.00 416.00
C 567.74 413.02 564.56 408.56 561.00 405.00
C 549.59 395.25 537.55 377.86 521.00 388.00 Z"/>
</g>
<g fill="None" fill-opacity="0.0" stroke="#FFE3C6" stroke-opacity="1.00" stroke-width="0.3"><path d="
M 1072.00 424.00 
C 1079.83 421.43 1084.80 411.40 1090.75 405.75 C 1096.70 400.11 1103.86 393.45 1109.00 387.00
C 1104.65 390.73 1094.73 397.61 1090.23 404.23 C 1085.73 410.85 1075.77 416.29 1072.00 424.00 Z"/>
</g>
<g fill="None" fill-opacity="0.0" stroke="#F4AB77" stroke-opacity="1.00" stroke-width="0.3"><path d="
M 603.00 499.00 
C 593.58 489.58 584.70 479.96 574.00 472.00
C 563.33 464.07 554.35 453.27 545.00 444.00
C 544.13 443.33 543.70 442.70 543.00 442.00
C 542.30 441.30 541.67 440.87 541.00 440.00
C 528.32 426.96 497.38 406.84 521.00 388.00
C 501.02 400.24 516.94 421.76 529.92 432.08 C 542.89 442.41 553.64 454.89 566.25 465.75 C 578.86 476.62 589.51 489.56 603.00 499.00 Z"/>
</g>
<g fill="None" fill-opacity="0.0" stroke="#FEDEBD" stroke-opacity="1.00" stroke-width="0.3"><path d="
M 418.00 408.00 
C 420.09 404.01 423.93 399.65 425.00 395.00
C 421.15 396.57 419.35 404.48 418.00 408.00 Z"/>
</g>
<g fill="None" fill-opacity="0.0" stroke="#FEC89C" stroke-opacity="1.00" stroke-width="0.3"><path d="
M 572.00 416.00 
C 568.22 412.90 564.85 408.29 561.00 405.00
C 564.56 408.56 567.74 413.02 572.00 416.00 Z"/>
</g>
<g fill="None" fill-opacity="0.0" stroke="#FFDDBC" stroke-opacity="1.00" stroke-width="0.3"><path d="
M 409.00 440.00 
C 409.36 438.76 410.68 436.21 411.00 435.00
C 411.28 433.18 411.60 431.72 412.00 430.00
C 413.18 424.88 414.44 420.00 416.00 415.00
C 412.95 421.91 408.68 431.64 409.00 440.00 Z"/>
</g>
<g fill="None" fill-opacity="0.0" stroke="#FAC095" stroke-opacity="1.00" stroke-width="0.3"><path d="
M 1055.00 441.00 
C 1022.98 473.02 991.62 505.38 959.00 538.00
C 957.69 539.53 956.35 541.42 955.00 543.00
C 947.37 551.93 938.49 559.80 930.25 568.25 C 922.01 576.70 913.71 585.14 905.75 593.75 C 897.79 602.36 888.09 609.97 881.25 619.25 C 874.41 628.52 861.02 634.75 856.00 645.00
C 867.81 636.72 877.00 623.51 887.75 613.75 C 898.50 603.99 907.35 592.14 918.25 582.25 C 929.14 572.36 938.95 561.44 948.75 550.75 C 958.56 540.07 970.74 530.14 980.25 519.25 C 989.75 508.36 1000.90 498.36 1010.75 487.75 C 1020.61 477.15 1032.74 467.77 1041.75 456.75 C 1050.76 445.73 1065.83 437.62 1072.00 425.00
C 1065.81 429.33 1060.79 436.05 1055.00 441.00 Z"/>
</g>
<g fill="None" fill-opacity="0.0" stroke="#FFEACF" stroke-opacity="1.00" stroke-width="0.3"><path d="
M 965.00 478.00 
C 958.59 485.50 950.90 492.10 944.00 499.00
C 937.88 506.17 930.71 513.29 924.00 520.00
C 940.00 509.64 957.05 489.10 971.25 474.25 C 985.44 459.39 1006.81 442.12 1016.00 427.00
C 999.21 443.79 980.49 459.87 965.00 478.00 Z"/>
</g>
<g fill="None" fill-opacity="0.0" stroke="#F7AF79" stroke-opacity="1.00" stroke-width="0.3"><path d="
M 607.00 448.00 
C 601.49 442.49 595.81 436.23 590.00 432.00
C 595.47 437.47 601.01 442.88 607.00 448.00 Z"/>
</g>
<g fill="None" fill-opacity="0.0" stroke="#EFA872" stroke-opacity="1.00" stroke-width="0.3"><path d="
M 409.00 440.00 
C 409.02 440.50 409.00 441.50 409.00 442.00
C 409.00 443.86 409.38 446.18 409.00 448.00
C 411.21 445.85 410.50 438.26 411.00 435.00
C 410.68 436.21 409.36 438.76 409.00 440.00 Z"/>
</g>
<g fill="None" fill-opacity="0.0" stroke="#FEF4DF" stroke-opacity="1.00" stroke-width="0.3"><path d="
M 543.00 442.00 
C 543.70 442.70 544.13 443.33 545.00 444.00
C 555.69 452.18 563.96 463.25 574.00 472.00
C 584.70 479.96 593.58 489.58 603.00 499.00
C 607.35 503.35 612.27 507.95 617.00 512.00
C 622.60 516.78 628.61 521.57 634.00 526.00
C 624.60 515.00 614.76 507.58 604.25 497.75 C 593.73 487.92 584.13 476.95 573.30 468.70 C 562.47 460.46 554.25 447.78 543.00 442.00 Z"/>
</g>
<g fill="None" fill-opacity="0.0" stroke="#FEF6E3" stroke-opacity="1.00" stroke-width="0.3"><path d="
M 959.00 538.00 
C 991.62 505.38 1022.98 473.02 1055.00 441.00
C 1020.15 470.78 990.05 501.67 959.00 538.00 Z"/>
</g>
<g fill="None" fill-opacity="0.0" stroke="#FFF3DA" stroke-opacity="1.00" stroke-width="0.3"><path d="
M 253.00 448.00 
C 304.67 447.98 356.33 447.98 408.00 448.00
C 408.00 448.00 408.74 448.25 409.00 448.00
C 409.38 446.18 409.00 443.86 409.00 442.00
C 406.72 451.63 389.99 445.74 381.00 447.00 C 372.01 448.26 358.80 446.17 349.00 447.00 C 339.20 447.83 325.88 446.03 316.00 447.00 C 306.12 447.97 293.29 445.19 284.00 447.00 C 274.71 448.81 260.18 442.69 253.00 448.00 Z"/>
</g>
<g fill="None" fill-opacity="0.0" stroke="#FED4B0" stroke-opacity="1.00" stroke-width="0.3"><path d="
M 574.00 472.00 
C 563.96 463.25 555.69 452.18 545.00 444.00
C 554.35 453.27 563.33 464.07 574.00 472.00 Z"/>
</g>
<g fill="None" fill-opacity="0.0" stroke="#FFECD5" stroke-opacity="1.00" stroke-width="0.3"><path d="
M 1152.00 447.00 
C 1152.00 447.00 1152.17 447.57 1152.00 448.00
C 1148.36 457.27 1141.62 466.81 1136.00 475.00
C 1139.10 471.41 1143.56 463.69 1146.23 460.23 C 1148.90 456.77 1154.24 445.50 1152.00 447.00 Z"/>
</g>
<g fill="None" fill-opacity="0.0" stroke="#FEF0D7" stroke-opacity="1.00" stroke-width="0.3"><path d="
M 414.00 540.00 
C 411.26 529.09 409.96 523.77 409.22 511.78 C 408.48 499.78 395.16 502.94 384.00 503.00 C 372.84 503.06 361.02 503.04 350.00 503.00 C 338.98 502.96 327.77 503.17 317.00 503.00 C 306.23 502.83 293.27 503.39 283.00 503.00 C 272.73 502.61 258.74 504.32 249.98 502.02 C 241.21 499.73 235.01 493.67 232.00 486.00
C 227.31 474.05 231.70 460.66 242.00 453.00
C 245.20 450.62 248.91 449.69 252.00 448.00
C 247.90 447.35 244.86 451.50 241.00 449.00
C 240.46 451.87 234.95 458.52 234.00 453.00
C 227.46 465.99 227.53 481.89 233.00 495.00
C 240.76 496.68 244.80 504.92 255.00 504.00 C 265.20 503.08 277.48 504.45 288.00 504.00 C 298.52 503.55 309.35 504.25 320.00 504.00 C 330.65 503.75 342.35 504.22 353.00 504.00 C 363.65 503.78 374.49 504.33 385.00 504.00 C 395.51 503.67 408.59 501.36 409.00 513.00 C 409.42 524.64 410.08 530.37 414.00 540.00 Z"/>
</g>
<g fill="None" fill-opacity="0.0" stroke="#EC9455" stroke-opacity="1.00" stroke-width="0.3"><path d="
M 242.00 453.00 
C 248.22 449.68 256.10 448.76 265.00 449.00 C 273.90 449.24 284.77 449.00 294.00 449.00 C 303.23 449.00 313.72 449.23 323.00 449.00 C 332.28 448.77 342.94 449.61 352.00 449.00 C 361.06 448.39 372.55 450.41 381.00 449.00 C 389.45 447.59 401.59 452.74 408.00 448.00
C 356.33 447.98 304.67 447.98 253.00 448.00
C 253.00 448.00 252.50 448.04 252.00 448.00
C 248.91 449.69 245.20 450.62 242.00 453.00 Z"/>
</g>
<g fill="None" fill-opacity="0.0" stroke="#F8B382" stroke-opacity="1.00" stroke-width="0.3"><path d="
M 1110.00 510.00 
C 1119.25 498.74 1127.54 487.33 1136.00 475.00
C 1141.62 466.81 1148.36 457.27 1152.00 448.00
C 1145.87 450.49 1142.79 463.54 1137.92 468.92 C 1133.06 474.31 1128.84 483.91 1123.77 489.77 C 1118.70 495.64 1114.04 503.33 1110.00 510.00 Z"/>
</g>
<g fill="None" fill-opacity="0.0" stroke="#FAB684" stroke-opacity="1.00" stroke-width="0.3"><path d="
M 632.00 471.00 
C 626.91 466.20 621.47 460.81 616.00 456.00
C 621.16 461.31 626.10 466.57 632.00 471.00 Z"/>
</g>
<g fill="None" fill-opacity="0.0" stroke="#FCBF92" stroke-opacity="1.00" stroke-width="0.3"><path d="
M 944.00 499.00 
C 950.90 492.10 958.59 485.50 965.00 478.00
C 958.11 484.89 950.40 491.51 944.00 499.00 Z"/>
</g>
<g fill="None" fill-opacity="0.0" stroke="#F19D63" stroke-opacity="1.00" stroke-width="0.3"><path d="
M 761.00 592.00 
C 768.75 598.62 775.56 606.13 783.00 613.00
C 790.21 618.69 797.35 625.35 804.00 632.00
C 813.06 638.34 819.65 624.96 826.75 618.75 C 833.85 612.54 840.41 604.97 847.25 598.25 C 854.09 591.52 860.71 583.49 867.75 576.75 C 874.80 570.01 881.73 563.34 888.00 556.00
C 879.99 564.01 871.94 570.51 864.25 579.25 C 856.56 587.98 848.29 593.14 840.75 602.75 C 833.21 612.36 826.08 615.84 817.75 626.75 C 809.42 637.67 800.84 627.74 792.70 619.30 C 784.56 610.87 775.77 605.41 767.75 597.25 C 759.74 589.09 751.87 582.03 743.75 574.25 C 735.62 566.48 726.55 560.42 718.75 552.25 C 710.95 544.07 702.69 537.18 694.75 529.25 C 686.81 521.32 678.90 513.95 670.75 506.25 C 662.61 498.54 654.38 490.75 646.00 484.00
C 682.84 520.84 721.36 558.13 761.00 592.00 Z"/>
</g>
<g fill="None" fill-opacity="0.0" stroke="#F8B583" stroke-opacity="1.00" stroke-width="0.3"><path d="
M 414.00 540.00 
C 414.67 541.66 414.69 542.73 416.00 544.00
C 415.76 533.82 411.03 528.47 411.00 518.00 C 410.97 507.53 408.93 499.82 397.00 502.00 C 385.07 504.18 377.83 501.05 367.00 502.00 C 356.17 502.95 347.27 501.64 337.00 502.00 C 326.73 502.36 315.84 501.96 306.00 502.00 C 296.16 502.04 285.12 502.27 276.00 502.00 C 266.88 501.73 255.00 503.43 247.70 500.31 C 240.39 497.18 235.32 492.42 232.00 486.00
C 235.01 493.67 241.21 499.73 249.98 502.02 C 258.74 504.32 272.73 502.61 283.00 503.00 C 293.27 503.39 306.23 502.83 317.00 503.00 C 327.77 503.17 338.98 502.96 350.00 503.00 C 361.02 503.04 372.84 503.06 384.00 503.00 C 395.16 502.94 408.48 499.78 409.22 511.78 C 409.96 523.77 411.26 529.09 414.00 540.00 Z"/>
</g>
<g fill="None" fill-opacity="0.0" stroke="#FED1A9" stroke-opacity="1.00" stroke-width="0.3"><path d="
M 625.00 520.00 
C 633.84 527.56 642.29 536.89 651.00 544.00
C 649.72 538.63 638.08 530.77 634.00 526.00
C 628.61 521.57 622.60 516.78 617.00 512.00
C 619.61 514.61 622.11 517.53 625.00 520.00 Z"/>
</g>
<g fill="None" fill-opacity="0.0" stroke="#F3A671" stroke-opacity="1.00" stroke-width="0.3"><path d="
M 702.00 592.00 
C 699.50 589.95 697.24 586.22 695.00 584.00
C 689.53 578.59 683.49 573.49 678.00 568.00
C 672.99 563.72 668.31 558.79 663.00 555.00
C 659.05 552.18 654.74 547.93 652.00 544.00
C 652.00 544.00 651.30 544.24 651.00 544.00
C 642.29 536.89 633.84 527.56 625.00 520.00
C 637.37 532.37 649.86 545.47 663.25 556.75 C 676.63 568.03 687.08 583.33 702.00 592.00 Z"/>
</g>
<g fill="None" fill-opacity="0.0" stroke="#FEF1DA" stroke-opacity="1.00" stroke-width="0.3"><path d="
M 810.00 683.00 
C 830.93 682.71 839.28 653.50 856.00 646.00
C 856.00 646.00 855.80 645.40 856.00 645.00
C 861.02 634.75 874.41 628.52 881.25 619.25 C 888.09 609.97 897.79 602.36 905.75 593.75 C 913.71 585.14 922.01 576.70 930.25 568.25 C 938.49 559.80 947.37 551.93 955.00 543.00
C 943.12 554.88 930.66 566.70 918.75 578.75 C 906.84 590.81 895.02 603.38 882.77 614.77 C 870.52 626.16 859.87 641.24 847.25 651.25 C 834.62 661.26 826.91 680.39 810.00 683.00 Z"/>
</g>
<g fill="None" fill-opacity="0.0" stroke="#FFD8B6" stroke-opacity="1.00" stroke-width="0.3"><path d="
M 663.00 555.00 
C 659.32 551.92 656.55 546.23 652.00 544.00
C 654.74 547.93 659.05 552.18 663.00 555.00 Z"/>
</g>
<g fill="None" fill-opacity="0.0" stroke="#F3A46A" stroke-opacity="1.00" stroke-width="0.3"><path d="
M 416.00 549.00 
C 417.01 554.25 420.14 560.97 422.00 566.00
C 420.65 560.95 420.14 548.17 416.00 545.00
C 416.00 546.32 415.91 547.68 416.00 549.00 Z"/>
</g>
<g fill="None" fill-opacity="0.0" stroke="#FFE1BF" stroke-opacity="1.00" stroke-width="0.3"><path d="
M 424.00 575.00 
C 423.87 574.54 424.06 573.49 424.00 573.00
C 423.70 570.60 422.61 568.30 422.00 566.00
C 420.14 560.97 417.01 554.25 416.00 549.00
C 416.63 557.85 420.82 567.18 424.00 575.00 Z"/>
</g>
<g fill="None" fill-opacity="0.0" stroke="#F6B481" stroke-opacity="1.00" stroke-width="0.3"><path d="
M 1064.00 575.00 
C 1067.65 572.26 1069.85 567.77 1072.00 564.00
C 1069.29 567.53 1065.56 570.65 1064.00 575.00 Z"/>
</g>
<g fill="None" fill-opacity="0.0" stroke="#FFE9CD" stroke-opacity="1.00" stroke-width="0.3"><path d="
M 695.00 584.00 
C 689.74 577.91 684.14 573.24 678.00 568.00
C 683.49 573.49 689.53 578.59 695.00 584.00 Z"/>
</g>
<g fill="None" fill-opacity="0.0" stroke="#F7B586" stroke-opacity="1.00" stroke-width="0.3"><path d="
M 424.00 575.00 
C 425.51 580.43 428.07 585.71 430.00 591.00
C 430.22 591.25 431.00 591.00 431.00 591.00
C 429.15 584.68 426.41 578.92 424.00 573.00
C 424.06 573.49 423.87 574.54 424.00 575.00 Z"/>
</g>
<g fill="None" fill-opacity="0.0" stroke="#F9B88B" stroke-opacity="1.00" stroke-width="0.3"><path d="
M 1024.00 631.00 
C 1026.80 628.31 1028.67 624.17 1032.00 622.00
C 1032.00 622.00 1031.76 621.32 1032.00 621.00
C 1041.52 608.54 1050.70 595.50 1060.00 583.00
C 1061.66 580.76 1062.19 578.46 1063.00 576.00
C 1055.29 582.40 1050.07 595.90 1043.75 603.75 C 1037.43 611.61 1025.89 621.29 1024.00 631.00 Z"/>
</g>
<g fill="None" fill-opacity="0.0" stroke="#FEF4E1" stroke-opacity="1.00" stroke-width="0.3"><path d="
M 1032.00 621.00 
C 1039.61 617.60 1041.43 608.21 1046.75 602.75 C 1052.06 597.28 1056.68 588.89 1060.00 583.00
C 1050.70 595.50 1041.52 608.54 1032.00 621.00 Z"/>
</g>
<g fill="None" fill-opacity="0.0" stroke="#F6B281" stroke-opacity="1.00" stroke-width="0.3"><path d="
M 211.00 602.00 
C 209.83 604.02 208.70 605.86 208.00 608.00
C 211.39 600.15 222.17 591.82 230.00 590.00
C 222.02 590.89 214.96 595.19 211.00 602.00 Z"/>
</g>
<g fill="None" fill-opacity="0.0" stroke="#F8771F" stroke-opacity="1.00" stroke-width="0.3"><path d="
M 208.00 608.00 
C 203.85 620.79 209.02 634.52 221.00 640.00
C 238.60 648.04 265.31 642.69 285.00 643.00 C 304.69 643.31 331.99 647.08 350.00 640.00
C 350.43 639.83 351.55 640.15 352.00 640.00
C 376.96 619.50 359.37 585.94 328.00 590.00 C 296.63 594.06 261.64 586.47 230.00 590.00
C 222.17 591.82 211.39 600.15 208.00 608.00 Z"/>
</g>
<g fill="None" fill-opacity="0.0" stroke="#FFDFBE" stroke-opacity="1.00" stroke-width="0.3"><path d="
M 446.00 624.00 
C 443.82 619.57 441.73 614.52 440.00 610.00
C 437.31 604.86 433.83 599.73 432.00 594.00
C 431.68 593.00 431.29 591.99 431.00 591.00
C 431.00 591.00 430.22 591.25 430.00 591.00
C 433.50 600.61 438.55 616.86 446.00 624.00 Z"/>
</g>
<g fill="None" fill-opacity="0.0" stroke="#FDC599" stroke-opacity="1.00" stroke-width="0.3"><path d="
M 783.00 613.00 
C 775.56 606.13 768.75 598.62 761.00 592.00
C 768.18 599.18 775.00 606.69 783.00 613.00 Z"/>
</g>
<g fill="None" fill-opacity="0.0" stroke="#F2A66E" stroke-opacity="1.00" stroke-width="0.3"><path d="
M 440.00 610.00 
C 437.82 604.31 434.84 599.02 432.00 594.00
C 433.83 599.73 437.31 604.86 440.00 610.00 Z"/>
</g>
<g fill="None" fill-opacity="0.0" stroke="#FEE4C8" stroke-opacity="1.00" stroke-width="0.3"><path d="
M 227.00 644.00 
C 224.81 643.24 222.90 641.19 221.00 640.00
C 209.02 634.52 203.85 620.79 208.00 608.00
C 208.70 605.86 209.83 604.02 211.00 602.00
C 199.62 616.85 206.32 641.55 227.00 644.00 Z"/>
</g>
<g fill="None" fill-opacity="0.0" stroke="#FFF1DE" stroke-opacity="1.00" stroke-width="0.3"><path d="
M 1024.00 631.00 
C 1024.00 631.00 1024.16 631.56 1024.00 632.00
C 1021.09 640.07 1013.05 646.48 1008.00 653.00
C 1007.81 653.41 1008.19 654.59 1008.00 655.00
C 1018.08 644.09 1024.41 633.37 1032.00 622.00
C 1028.67 624.17 1026.80 628.31 1024.00 631.00 Z"/>
</g>
<g fill="None" fill-opacity="0.0" stroke="#FEDBB7" stroke-opacity="1.00" stroke-width="0.3"><path d="
M 462.00 649.00 
C 457.06 641.35 453.26 631.51 447.00 625.00
C 445.92 630.89 457.90 643.91 462.00 649.00 Z"/>
</g>
<g fill="None" fill-opacity="0.0" stroke="#F9BB8E" stroke-opacity="1.00" stroke-width="0.3"><path d="
M 856.00 646.00 
C 839.28 653.50 830.93 682.71 810.00 683.00
C 795.65 683.20 785.90 668.06 775.25 659.75 C 764.60 651.45 756.42 640.73 746.00 632.00
C 754.73 640.56 761.99 649.10 771.25 656.75 C 780.50 664.40 787.98 672.42 797.25 680.75 C 806.53 689.08 825.78 681.67 831.70 671.70 C 837.61 661.73 850.93 656.37 856.00 646.00 Z"/>
</g>
<g fill="None" fill-opacity="0.0" stroke="#FCC49A" stroke-opacity="1.00" stroke-width="0.3"><path d="
M 1008.00 653.00 
C 1013.05 646.48 1021.09 640.07 1024.00 632.00
C 1019.24 634.13 1010.53 647.70 1008.00 653.00 Z"/>
</g>
<g fill="None" fill-opacity="0.0" stroke="#F09556" stroke-opacity="1.00" stroke-width="0.3"><path d="
M 227.00 644.00 
C 227.49 644.06 228.50 644.00 229.00 644.00
C 242.43 644.00 256.65 644.39 270.00 644.00 C 283.35 643.61 299.04 645.00 312.00 644.00 C 324.96 643.00 340.07 648.01 350.00 640.00
C 331.99 647.08 304.69 643.31 285.00 643.00 C 265.31 642.69 238.60 648.04 221.00 640.00
C 222.90 641.19 224.81 643.24 227.00 644.00 Z"/>
</g>
<g fill="None" fill-opacity="0.0" stroke="#FFE0C2" stroke-opacity="1.00" stroke-width="0.3"><path d="
M 229.00 644.00 
C 240.53 648.90 257.97 643.67 271.00 645.00 C 284.03 646.33 300.99 644.89 314.00 645.00 C 327.01 645.11 342.12 648.12 352.00 640.00
C 351.55 640.15 350.43 639.83 350.00 640.00
C 340.07 648.01 324.96 643.00 312.00 644.00 C 299.04 645.00 283.35 643.61 270.00 644.00 C 256.65 644.39 242.43 644.00 229.00 644.00 Z"/>
</g>
<g fill="None" fill-opacity="0.0" stroke="#FEEFD9" stroke-opacity="1.00" stroke-width="0.3"><path d="
M 997.00 670.00 
C 994.72 673.77 992.44 677.48 990.00 681.00
C 994.60 676.35 999.29 670.42 1002.00 664.00
C 1000.43 665.84 998.50 667.52 997.00 670.00 Z"/>
</g>
<g fill="None" fill-opacity="0.0" stroke="#FABE92" stroke-opacity="1.00" stroke-width="0.3"><path d="
M 962.00 719.00 
C 971.56 707.01 981.08 693.87 990.00 681.00
C 992.44 677.48 994.72 673.77 997.00 670.00
C 984.74 684.92 969.91 702.53 962.00 719.00 Z"/>
</g>
<g fill="None" fill-opacity="0.0" stroke="#FFF1D7" stroke-opacity="1.00" stroke-width="0.3"><path d="
M 237.00 731.00 
C 257.87 728.22 279.87 731.58 301.00 731.00 C 322.13 730.42 344.87 729.85 366.00 731.00 C 387.13 732.15 410.23 727.35 431.00 731.00
C 416.67 726.53 398.65 731.18 383.00 730.00 C 367.35 728.82 349.86 730.13 334.00 730.00 C 318.14 729.87 300.76 729.17 285.00 730.00 C 269.24 730.83 251.68 727.19 237.00 731.00 Z"/>
</g>
<g fill="None" fill-opacity="0.0" stroke="#F0AC7D" stroke-opacity="1.00" stroke-width="0.3"><path d="
M 232.00 732.00 
C 230.27 732.58 227.47 734.90 226.00 736.00
C 244.95 725.21 272.89 733.56 295.00 732.00 C 317.11 730.44 345.51 731.20 368.00 732.00 C 390.49 732.80 418.43 727.02 439.00 735.00
C 436.61 733.71 433.86 731.89 431.00 731.00
C 410.23 727.35 387.13 732.15 366.00 731.00 C 344.87 729.85 322.13 730.42 301.00 731.00 C 279.87 731.58 257.87 728.22 237.00 731.00
C 235.52 731.20 233.54 731.67 232.00 732.00 Z"/>
</g>
<g fill="None" fill-opacity="0.0" stroke="#FFE6C6" stroke-opacity="1.00" stroke-width="0.3"><path d="
M 454.00 768.00 
C 452.87 773.44 446.92 780.80 442.00 784.00
C 440.31 785.10 439.10 785.29 437.00 786.00
C 418.69 794.83 393.17 787.71 372.00 789.00 C 350.83 790.29 324.56 789.86 303.00 789.00 C 281.44 788.14 255.34 793.04 235.00 788.00
C 231.60 787.16 227.92 785.91 225.00 784.00
C 212.24 775.68 208.78 759.43 216.00 747.00
C 218.48 742.73 222.01 739.00 226.00 736.00
C 227.47 734.90 230.27 732.58 232.00 732.00
C 214.48 735.77 203.67 758.97 215.08 775.92 C 226.50 792.87 249.86 790.41 270.00 790.00 C 290.14 789.60 318.50 789.93 339.00 790.00 C 359.50 790.07 388.80 789.40 408.00 790.00 C 427.20 790.60 451.23 790.32 454.00 768.00 Z"/>
</g>
<g fill="None" fill-opacity="0.0" stroke="#F9761C" stroke-opacity="1.00" stroke-width="0.3"><path d="
M 226.00 736.00 
C 222.01 739.00 218.48 742.73 216.00 747.00
C 210.48 759.64 213.55 775.23 225.00 784.00
C 227.92 785.91 231.60 787.16 235.00 788.00
C 256.88 790.71 281.00 787.45 303.00 788.00 C 325.00 788.55 349.33 789.26 371.00 788.00 C 392.67 786.74 416.96 792.82 437.00 786.00
C 439.10 785.29 440.31 785.10 442.00 784.00
C 452.65 775.85 455.72 759.89 451.00 748.00
C 448.44 741.55 445.14 738.31 439.00 735.00
C 418.43 727.02 390.49 732.80 368.00 732.00 C 345.51 731.20 317.11 730.44 295.00 732.00 C 272.89 733.56 244.95 725.21 226.00 736.00 Z"/>
</g>
<g fill="None" fill-opacity="0.0" stroke="#FBB586" stroke-opacity="1.00" stroke-width="0.3"><path d="
M 528.00 750.00 
C 525.60 745.78 522.86 741.92 520.00 738.00
C 522.49 742.29 524.93 746.27 528.00 750.00 Z"/>
</g>
<g fill="None" fill-opacity="0.0" stroke="#F5AB75" stroke-opacity="1.00" stroke-width="0.3"><path d="
M 225.00 784.00 
C 213.55 775.23 210.48 759.64 216.00 747.00
C 208.78 759.43 212.24 775.68 225.00 784.00 Z"/>
</g>
<g fill="None" fill-opacity="0.0" stroke="#F39A60" stroke-opacity="1.00" stroke-width="0.3"><path d="
M 442.00 784.00 
C 446.92 780.80 452.87 773.44 454.00 768.00
C 454.90 760.71 454.18 753.89 451.00 748.00
C 455.72 759.89 452.65 775.85 442.00 784.00 Z"/>
</g>
<g fill="None" fill-opacity="0.0" stroke="#F6AC78" stroke-opacity="1.00" stroke-width="0.3"><path d="
M 921.00 776.00 
C 922.80 774.05 925.63 771.16 927.00 769.00
C 927.39 768.08 927.62 766.81 928.00 766.00
C 925.01 769.20 922.50 771.78 921.00 776.00 Z"/>
</g>
<g fill="None" fill-opacity="0.0" stroke="#FFEED8" stroke-opacity="1.00" stroke-width="0.3"><path d="
M 921.00 776.00 
C 920.76 776.26 920.13 776.65 920.00 777.00
C 918.31 781.52 914.62 784.23 912.00 788.00
C 911.29 789.41 911.10 790.62 910.00 792.00
C 915.76 787.52 923.50 777.20 927.00 769.00
C 925.63 771.16 922.80 774.05 921.00 776.00 Z"/>
</g>
<g fill="None" fill-opacity="0.0" stroke="#F5AE7D" stroke-opacity="1.00" stroke-width="0.3"><path d="
M 912.00 788.00 
C 914.62 784.23 918.31 781.52 920.00 777.00
C 916.45 779.67 913.92 784.20 912.00 788.00 Z"/>
</g>
<g fill="None" fill-opacity="0.0" stroke="#F7B07C" stroke-opacity="1.00" stroke-width="0.3"><path d="
M 554.00 792.00 
C 555.50 794.48 558.39 796.68 560.00 799.00
C 557.14 793.80 553.73 789.46 550.00 785.00
C 551.41 787.28 552.70 789.86 554.00 792.00 Z"/>
</g>
<g fill="None" fill-opacity="0.0" stroke="#EFA771" stroke-opacity="1.00" stroke-width="0.3"><path d="
M 235.00 788.00 
C 255.34 793.04 281.44 788.14 303.00 789.00 C 324.56 789.86 350.83 790.29 372.00 789.00 C 393.17 787.71 418.69 794.83 437.00 786.00
C 416.96 792.82 392.67 786.74 371.00 788.00 C 349.33 789.26 325.00 788.55 303.00 788.00 C 281.00 787.45 256.88 790.71 235.00 788.00 Z"/>
</g>
<g fill="None" fill-opacity="0.0" stroke="#FFE5C5" stroke-opacity="1.00" stroke-width="0.3"><path d="
M 574.00 823.00 
C 571.46 816.22 565.81 809.34 562.00 803.00
C 561.22 801.71 560.66 800.20 560.00 799.00
C 558.39 796.68 555.50 794.48 554.00 792.00
C 557.28 800.67 566.31 817.22 574.00 823.00 Z"/>
</g>
<g fill="None" fill-opacity="0.0" stroke="#F6A469" stroke-opacity="1.00" stroke-width="0.3"><path d="
M 574.00 823.00 
C 574.13 823.35 574.76 823.74 575.00 824.00
C 576.31 818.32 565.10 807.12 562.00 803.00
C 565.81 809.34 571.46 816.22 574.00 823.00 Z"/>
</g>
<g fill="None" fill-opacity="0.0" stroke="#F4AE7A" stroke-opacity="1.00" stroke-width="0.3"><path d="
M 864.00 855.00 
C 868.04 849.22 874.06 843.82 878.00 838.00
C 878.77 836.55 879.20 834.41 880.00 833.00
C 874.55 839.31 867.29 847.29 864.00 855.00 Z"/>
</g>
<g fill="None" fill-opacity="0.0" stroke="#FFE7C7" stroke-opacity="1.00" stroke-width="0.3"><path d="
M 864.00 855.00 
C 863.61 855.92 863.38 857.19 863.00 858.00
C 868.24 852.10 874.18 845.14 878.00 838.00
C 874.06 843.82 868.04 849.22 864.00 855.00 Z"/>
</g>
<g fill="None" fill-opacity="0.0" stroke="#FFEBD0" stroke-opacity="1.00" stroke-width="0.3"><path d="
M 592.00 851.00 
C 591.84 850.56 592.00 850.00 592.00 850.00
C 589.56 846.81 585.97 843.26 584.00 840.00
C 585.89 844.18 589.58 847.31 592.00 851.00 Z"/>
</g>
<g fill="None" fill-opacity="0.0" stroke="#F7B280" stroke-opacity="1.00" stroke-width="0.3"><path d="
M 592.00 851.00 
C 592.49 852.40 593.32 853.67 594.00 855.00
C 600.37 864.30 607.21 873.68 614.00 883.00
C 623.05 892.79 633.26 902.99 643.00 912.00
C 646.91 914.99 650.75 917.66 655.00 920.00
C 628.38 900.60 612.12 874.50 592.00 850.00
C 592.00 850.00 591.84 850.56 592.00 851.00 Z"/>
</g>
<g fill="None" fill-opacity="0.0" stroke="#FFF4E0" stroke-opacity="1.00" stroke-width="0.3"><path d="
M 630.00 902.00 
C 624.75 896.75 618.51 889.18 614.00 883.00
C 607.21 873.68 600.37 864.30 594.00 855.00
C 601.94 870.51 615.05 892.16 630.00 902.00 Z"/>
</g>
<g fill="None" fill-opacity="0.0" stroke="#FED4AF" stroke-opacity="1.00" stroke-width="0.3"><path d="
M 630.00 902.00 
C 633.02 903.99 635.97 906.51 639.00 909.00
C 640.26 910.04 641.75 911.04 643.00 912.00
C 633.26 902.99 623.05 892.79 614.00 883.00
C 618.51 889.18 624.75 896.75 630.00 902.00 Z"/>
</g>
<g fill="None" fill-opacity="0.0" stroke="#FFEED8" stroke-opacity="1.00" stroke-width="0.3"><path d="
M 668.00 928.00 
C 663.70 925.94 659.40 922.43 655.00 920.00
C 650.75 917.66 646.91 914.99 643.00 912.00
C 641.75 911.04 640.26 910.04 639.00 909.00
C 647.90 917.91 656.18 924.21 668.00 928.00 Z"/>
</g>
<g fill="none" fill-opacity="1.00" stroke="None">
<path d="
M 0.00 1070.00 
L 1470.00 1070.00
L 1470.00 0.00
L 0.00 0.00
L 0.00 1070.00
M 1118.00 271.00 
C 1110.90 260.00 1120.00 241.03 1120.00 229.00
C 1120.00 217.63 1122.33 207.25 1123.00 196.00
C 1123.32 190.65 1124.25 185.50 1127.00 181.00
C 1132.11 181.99 1138.13 173.55 1144.68 175.34 C 1151.22 177.12 1155.62 180.15 1159.32 186.68 C 1163.02 193.21 1162.06 202.45 1161.00 210.00 C 1159.94 217.55 1158.50 224.61 1157.01 232.01 C 1155.51 239.40 1154.47 247.41 1154.00 255.00 C 1153.53 262.59 1152.98 270.14 1147.75 275.75 C 1142.52 281.36 1135.23 281.90 1128.93 281.07 C 1122.62 280.24 1115.09 272.40 1118.00 271.00
M 1058.00 211.00 
C 1066.40 213.28 1071.34 222.37 1075.25 229.75 C 1079.17 237.12 1085.16 245.00 1088.00 253.00
C 1091.97 264.17 1088.37 278.21 1074.98 279.98 C 1061.58 281.74 1054.38 270.98 1050.25 259.75 C 1046.11 248.53 1038.57 243.43 1035.07 230.93 C 1031.58 218.42 1045.66 207.66 1058.00 211.00
M 1256.00 241.00 
C 1272.31 244.09 1272.71 268.67 1259.92 275.92 C 1247.13 283.17 1238.81 292.36 1225.77 298.77 C 1212.73 305.18 1203.70 319.89 1187.33 317.67 C 1170.96 315.45 1169.70 289.82 1182.70 282.70 C 1195.69 275.58 1203.61 266.15 1216.25 259.25 C 1228.89 252.35 1239.85 237.94 1256.00 241.00
M 1152.00 447.00 
C 1154.24 445.50 1148.90 456.77 1146.23 460.23 C 1143.56 463.69 1139.10 471.41 1136.00 475.00
C 1127.54 487.33 1119.25 498.74 1110.00 510.00
C 1098.73 528.59 1082.69 545.22 1072.00 564.00
C 1069.85 567.77 1067.65 572.26 1064.00 575.00
C 1063.87 575.35 1063.28 575.77 1063.00 576.00
C 1062.19 578.46 1061.66 580.76 1060.00 583.00
C 1056.68 588.89 1052.06 597.28 1046.75 602.75 C 1041.43 608.21 1039.61 617.60 1032.00 621.00
C 1031.76 621.32 1032.00 622.00 1032.00 622.00
C 1024.41 633.37 1018.08 644.09 1008.00 655.00
C 1006.43 658.30 1003.44 660.58 1002.00 664.00
C 999.29 670.42 994.60 676.35 990.00 681.00
C 981.08 693.87 971.56 707.01 962.00 719.00
C 950.44 733.50 941.01 752.07 928.00 766.00
C 927.62 766.81 927.39 768.08 927.00 769.00
C 923.50 777.20 915.76 787.52 910.00 792.00
C 899.57 805.13 891.01 820.25 880.00 833.00
C 879.20 834.41 878.77 836.55 878.00 838.00
C 874.18 845.14 868.24 852.10 863.00 858.00
C 846.94 876.07 838.57 894.41 817.75 909.75 C 796.94 925.10 777.65 935.47 750.93 940.93 C 724.20 946.39 692.57 935.87 668.00 928.00
C 656.18 924.21 647.90 917.91 639.00 909.00
C 635.97 906.51 633.02 903.99 630.00 902.00
C 615.05 892.16 601.94 870.51 594.00 855.00
C 593.32 853.67 592.49 852.40 592.00 851.00
C 589.58 847.31 585.89 844.18 584.00 840.00
C 581.48 834.42 579.30 828.67 575.00 824.00
C 574.76 823.74 574.13 823.35 574.00 823.00
C 566.31 817.22 557.28 800.67 554.00 792.00
C 552.70 789.86 551.41 787.28 550.00 785.00
C 542.83 773.42 536.68 760.57 528.00 750.00
C 524.93 746.27 522.49 742.29 520.00 738.00
C 511.31 723.06 501.66 707.63 491.75 693.25 C 481.83 678.88 472.76 662.36 462.00 649.00
C 457.90 643.91 445.92 630.89 447.00 625.00
C 446.75 624.74 446.26 624.25 446.00 624.00
C 438.55 616.86 433.50 600.61 430.00 591.00
C 428.07 585.71 425.51 580.43 424.00 575.00
C 420.82 567.18 416.63 557.85 416.00 549.00
C 415.91 547.68 416.00 546.32 416.00 545.00
C 416.00 544.50 416.00 544.00 416.00 544.00
C 414.69 542.73 414.67 541.66 414.00 540.00
C 410.08 530.37 409.42 524.64 409.00 513.00 C 408.59 501.36 395.51 503.67 385.00 504.00 C 374.49 504.33 363.65 503.78 353.00 504.00 C 342.35 504.22 330.65 503.75 320.00 504.00 C 309.35 504.25 298.52 503.55 288.00 504.00 C 277.48 504.45 265.20 503.08 255.00 504.00 C 244.80 504.92 240.76 496.68 233.00 495.00
C 227.53 481.89 227.46 465.99 234.00 453.00
C 234.95 458.52 240.46 451.87 241.00 449.00
C 244.86 451.50 247.90 447.35 252.00 448.00
C 252.50 448.04 253.00 448.00 253.00 448.00
C 260.18 442.69 274.71 448.81 284.00 447.00 C 293.29 445.19 306.12 447.97 316.00 447.00 C 325.88 446.03 339.20 447.83 349.00 447.00 C 358.80 446.17 372.01 448.26 381.00 447.00 C 389.99 445.74 406.72 451.63 409.00 442.00
C 409.00 441.50 409.02 440.50 409.00 440.00
C 408.68 431.64 412.95 421.91 416.00 415.00
C 416.77 412.54 417.07 410.42 418.00 408.00
C 419.35 404.48 421.15 396.57 425.00 395.00
C 425.11 394.53 425.00 394.00 425.00 394.00
C 427.46 382.78 441.56 375.00 451.69 370.69 C 461.83 366.39 483.89 365.00 496.00 365.00
C 514.38 365.00 531.89 360.36 550.00 360.00
C 585.21 354.86 621.88 349.01 658.00 349.00
C 658.50 349.00 659.00 349.00 659.00 349.00
C 675.40 341.84 696.04 346.00 715.00 343.00 C 733.96 340.00 754.76 339.89 774.00 337.00 C 793.24 334.11 812.70 333.24 832.22 332.22 C 851.74 331.20 869.64 327.37 889.02 326.02 C 908.40 324.68 929.54 323.08 949.00 321.00 C 968.46 318.92 984.95 316.19 1004.01 315.01 C 1023.06 313.82 1045.16 310.18 1064.00 312.00
C 1088.66 312.00 1116.38 306.50 1137.69 321.31 C 1159.01 336.11 1166.90 351.49 1170.00 377.00 C 1173.10 402.51 1160.77 424.68 1152.00 447.00
M 352.00 640.00 
C 342.12 648.12 327.01 645.11 314.00 645.00 C 300.99 644.89 284.03 646.33 271.00 645.00 C 257.97 643.67 240.53 648.90 229.00 644.00
C 228.50 644.00 227.49 644.06 227.00 644.00
C 206.32 641.55 199.62 616.85 211.00 602.00
C 214.96 595.19 222.02 590.89 230.00 590.00
C 261.64 586.47 296.63 594.06 328.00 590.00 C 359.37 585.94 376.96 619.50 352.00 640.00
M 431.00 731.00 
C 433.86 731.89 436.61 733.71 439.00 735.00
C 445.14 738.31 448.44 741.55 451.00 748.00
C 454.18 753.89 454.90 760.71 454.00 768.00
C 451.23 790.32 427.20 790.60 408.00 790.00 C 388.80 789.40 359.50 790.07 339.00 790.00 C 318.50 789.93 290.14 789.60 270.00 790.00 C 249.86 790.41 226.50 792.87 215.08 775.92 C 203.67 758.97 214.48 735.77 232.00 732.00
C 233.54 731.67 235.52 731.20 237.00 731.00
C 251.68 727.19 269.24 730.83 285.00 730.00 C 300.76 729.17 318.14 729.87 334.00 730.00 C 349.86 730.13 367.35 728.82 383.00 730.00 C 398.65 731.18 416.67 726.53 431.00 731.00 Z"/>
</g>
<g fill="#E6F7D6" fill-opacity="1.00" stroke="None">
<path d="
M 1123.00 196.00 
C 1125.57 178.42 1155.59 168.34 1160.00 190.00
C 1162.65 203.02 1157.12 218.91 1155.67 231.67 C 1154.22 244.43 1153.68 258.62 1148.69 270.69 C 1143.71 282.77 1123.79 279.97 1118.00 271.00
C 1115.09 272.40 1122.62 280.24 1128.93 281.07 C 1135.23 281.90 1142.52 281.36 1147.75 275.75 C 1152.98 270.14 1153.53 262.59 1154.00 255.00 C 1154.47 247.41 1155.51 239.40 1157.01 232.01 C 1158.50 224.61 1159.94 217.55 1161.00 210.00 C 1162.06 202.45 1163.02 193.21 1159.32 186.68 C 1155.62 180.15 1151.22 177.12 1144.68 175.34 C 1138.13 173.55 1132.11 181.99 1127.00 181.00
C 1124.25 185.50 1123.32 190.65 1123.00 196.00 Z"/>
</g>
<g fill="#CAE8AC" fill-opacity="1.00" stroke="None">
<path d="
M 1123.00 196.00 
C 1122.33 207.25 1120.00 217.63 1120.00 229.00
C 1121.93 215.51 1123.02 199.93 1127.78 186.78 C 1132.53 173.62 1156.25 178.14 1160.00 190.00
C 1155.59 168.34 1125.57 178.42 1123.00 196.00 Z"/>
</g>
<g fill="#7ABC37" fill-opacity="1.00" stroke="None">
<path d="
M 1120.00 229.00 
C 1120.00 241.03 1110.90 260.00 1118.00 271.00
C 1123.79 279.97 1143.71 282.77 1148.69 270.69 C 1153.68 258.62 1154.22 244.43 1155.67 231.67 C 1157.12 218.91 1162.65 203.02 1160.00 190.00
C 1156.25 178.14 1132.53 173.62 1127.78 186.78 C 1123.02 199.93 1121.93 215.51 1120.00 229.00 Z"/>
</g>
<g fill="#7CBD39" fill-opacity="1.00" stroke="None">
<path d="
M 1088.00 253.00 
C 1084.65 245.67 1077.52 238.50 1074.08 230.92 C 1070.64 223.35 1065.72 213.99 1058.00 211.00
C 1045.66 207.66 1031.58 218.42 1035.07 230.93 C 1038.57 243.43 1046.11 248.53 1050.25 259.75 C 1054.38 270.98 1061.58 281.74 1074.98 279.98 C 1088.37 278.21 1091.97 264.17 1088.00 253.00 Z"/>
</g>
<g fill="#C1E3A2" fill-opacity="1.00" stroke="None">
<path d="
M 1088.00 253.00 
C 1085.16 245.00 1079.17 237.12 1075.25 229.75 C 1071.34 222.37 1066.40 213.28 1058.00 211.00
C 1065.72 213.99 1070.64 223.35 1074.08 230.92 C 1077.52 238.50 1084.65 245.67 1088.00 253.00 Z"/>
</g>
<g fill="#81C146" fill-opacity="1.00" stroke="None">
<path d="
M 1256.00 241.00 
C 1239.85 237.94 1228.89 252.35 1216.25 259.25 C 1203.61 266.15 1195.69 275.58 1182.70 282.70 C 1169.70 289.82 1170.96 315.45 1187.33 317.67 C 1203.70 319.89 1212.73 305.18 1225.77 298.77 C 1238.81 292.36 1247.13 283.17 1259.92 275.92 C 1272.71 268.67 1272.31 244.09 1256.00 241.00 Z"/>
</g>
<g fill="#F9751B" fill-opacity="1.00" stroke="None">
<path d="
M 1064.00 312.00 
C 1034.44 312.00 1005.55 320.00 976.00 320.00
C 963.29 321.23 949.52 324.00 936.00 324.00
C 930.42 324.00 925.60 325.00 920.00 325.00
C 915.07 325.48 909.62 327.00 904.00 327.00
C 887.45 327.00 870.41 330.56 854.00 332.00
C 844.96 333.84 833.69 335.00 824.00 335.00
C 797.10 335.00 770.72 342.00 744.00 342.00
C 739.07 342.48 733.62 344.00 728.00 344.00
C 711.55 344.00 696.19 348.00 680.00 348.00
C 673.11 348.67 665.71 350.00 658.00 350.00
C 657.50 350.00 656.50 350.00 656.00 350.00
C 646.11 354.20 630.28 354.00 619.00 354.00
C 618.00 354.00 617.00 354.00 616.00 354.00
C 611.07 355.08 605.62 356.00 600.00 356.00
C 591.74 356.00 584.28 358.00 576.00 358.00
C 544.88 361.01 511.92 368.00 480.00 368.00
C 477.33 368.00 474.67 368.00 472.00 368.00
C 463.65 368.81 455.12 372.14 447.00 375.00
C 445.97 375.36 445.03 375.46 444.00 376.00
C 425.56 388.89 418.96 410.49 412.00 430.00
C 411.60 431.72 411.28 433.18 411.00 435.00
C 410.50 438.26 411.21 445.85 409.00 448.00
C 408.74 448.25 408.00 448.00 408.00 448.00
C 401.59 452.74 389.45 447.59 381.00 449.00 C 372.55 450.41 361.06 448.39 352.00 449.00 C 342.94 449.61 332.28 448.77 323.00 449.00 C 313.72 449.23 303.23 449.00 294.00 449.00 C 284.77 449.00 273.90 449.24 265.00 449.00 C 256.10 448.76 248.22 449.68 242.00 453.00
C 231.70 460.66 227.31 474.05 232.00 486.00
C 235.32 492.42 240.39 497.18 247.70 500.31 C 255.00 503.43 266.88 501.73 276.00 502.00 C 285.12 502.27 296.16 502.04 306.00 502.00 C 315.84 501.96 326.73 502.36 337.00 502.00 C 347.27 501.64 356.17 502.95 367.00 502.00 C 377.83 501.05 385.07 504.18 397.00 502.00 C 408.93 499.82 410.97 507.53 411.00 518.00 C 411.03 528.47 415.76 533.82 416.00 544.00
C 416.00 544.00 416.00 544.50 416.00 545.00
C 420.14 548.17 420.65 560.95 422.00 566.00
C 422.61 568.30 423.70 570.60 424.00 573.00
C 426.41 578.92 429.15 584.68 431.00 591.00
C 431.29 591.99 431.68 593.00 432.00 594.00
C 434.84 599.02 437.82 604.31 440.00 610.00
C 441.73 614.52 443.82 619.57 446.00 624.00
C 446.26 624.25 446.75 624.74 447.00 625.00
C 453.26 631.51 457.06 641.35 462.00 649.00
C 472.76 662.36 481.83 678.88 491.75 693.25 C 501.66 707.63 511.31 723.06 520.00 738.00
C 522.86 741.92 525.60 745.78 528.00 750.00
C 536.68 760.57 542.83 773.42 550.00 785.00
C 553.73 789.46 557.14 793.80 560.00 799.00
C 560.66 800.20 561.22 801.71 562.00 803.00
C 565.10 807.12 576.31 818.32 575.00 824.00
C 579.30 828.67 581.48 834.42 584.00 840.00
C 585.97 843.26 589.56 846.81 592.00 850.00
C 612.12 874.50 628.38 900.60 655.00 920.00
C 659.40 922.43 663.70 925.94 668.00 928.00
C 692.57 935.87 724.20 946.39 750.93 940.93 C 777.65 935.47 796.94 925.10 817.75 909.75 C 838.57 894.41 846.94 876.07 863.00 858.00
C 863.38 857.19 863.61 855.92 864.00 855.00
C 867.29 847.29 874.55 839.31 880.00 833.00
C 891.01 820.25 899.57 805.13 910.00 792.00
C 911.10 790.62 911.29 789.41 912.00 788.00
C 913.92 784.20 916.45 779.67 920.00 777.00
C 920.13 776.65 920.76 776.26 921.00 776.00
C 922.50 771.78 925.01 769.20 928.00 766.00
C 941.01 752.07 950.44 733.50 962.00 719.00
C 969.91 702.53 984.74 684.92 997.00 670.00
C 998.50 667.52 1000.43 665.84 1002.00 664.00
C 1003.44 660.58 1006.43 658.30 1008.00 655.00
C 1008.19 654.59 1007.81 653.41 1008.00 653.00
C 1010.53 647.70 1019.24 634.13 1024.00 632.00
C 1024.16 631.56 1024.00 631.00 1024.00 631.00
C 1025.89 621.29 1037.43 611.61 1043.75 603.75 C 1050.07 595.90 1055.29 582.40 1063.00 576.00
C 1063.28 575.77 1063.87 575.35 1064.00 575.00
C 1065.56 570.65 1069.29 567.53 1072.00 564.00
C 1082.69 545.22 1098.73 528.59 1110.00 510.00
C 1114.04 503.33 1118.70 495.64 1123.77 489.77 C 1128.84 483.91 1133.06 474.31 1137.92 468.92 C 1142.79 463.54 1145.87 450.49 1152.00 448.00
C 1152.17 447.57 1152.00 447.00 1152.00 447.00
C 1160.77 424.68 1173.10 402.51 1170.00 377.00 C 1166.90 351.49 1159.01 336.11 1137.69 321.31 C 1116.38 306.50 1088.66 312.00 1064.00 312.00
M 1098.00 357.00 
C 1098.50 357.00 1099.00 357.00 1099.00 357.00
C 1112.93 358.30 1116.01 378.21 1109.00 387.00
C 1103.86 393.45 1096.70 400.11 1090.75 405.75 C 1084.80 411.40 1079.83 421.43 1072.00 424.00
C 1071.80 424.40 1072.00 425.00 1072.00 425.00
C 1065.83 437.62 1050.76 445.73 1041.75 456.75 C 1032.74 467.77 1020.61 477.15 1010.75 487.75 C 1000.90 498.36 989.75 508.36 980.25 519.25 C 970.74 530.14 958.56 540.07 948.75 550.75 C 938.95 561.44 929.14 572.36 918.25 582.25 C 907.35 592.14 898.50 603.99 887.75 613.75 C 877.00 623.51 867.81 636.72 856.00 645.00
C 855.80 645.40 856.00 646.00 856.00 646.00
C 850.93 656.37 837.61 661.73 831.70 671.70 C 825.78 681.67 806.53 689.08 797.25 680.75 C 787.98 672.42 780.50 664.40 771.25 656.75 C 761.99 649.10 754.73 640.56 746.00 632.00
C 732.23 620.47 718.12 601.37 702.00 592.00
C 687.08 583.33 676.63 568.03 663.25 556.75 C 649.86 545.47 637.37 532.37 625.00 520.00
C 622.11 517.53 619.61 514.61 617.00 512.00
C 612.27 507.95 607.35 503.35 603.00 499.00
C 589.51 489.56 578.86 476.62 566.25 465.75 C 553.64 454.89 542.89 442.41 529.92 432.08 C 516.94 421.76 501.02 400.24 521.00 388.00
C 537.55 377.86 549.59 395.25 561.00 405.00
C 564.85 408.29 568.22 412.90 572.00 416.00
C 578.17 420.32 584.48 426.48 590.00 432.00
C 595.81 436.23 601.49 442.49 607.00 448.00
C 610.09 450.64 613.25 453.58 616.00 456.00
C 621.47 460.81 626.91 466.20 632.00 471.00
C 636.62 475.35 641.54 479.54 646.00 484.00
C 654.38 490.75 662.61 498.54 670.75 506.25 C 678.90 513.95 686.81 521.32 694.75 529.25 C 702.69 537.18 710.95 544.07 718.75 552.25 C 726.55 560.42 735.62 566.48 743.75 574.25 C 751.87 582.03 759.74 589.09 767.75 597.25 C 775.77 605.41 784.56 610.87 792.70 619.30 C 800.84 627.74 809.42 637.67 817.75 626.75 C 826.08 615.84 833.21 612.36 840.75 602.75 C 848.29 593.14 856.56 587.98 864.25 579.25 C 871.94 570.51 879.99 564.01 888.00 556.00
C 898.95 543.19 912.16 531.84 924.00 520.00
C 930.71 513.29 937.88 506.17 944.00 499.00
C 950.40 491.51 958.11 484.89 965.00 478.00
C 980.49 459.87 999.21 443.79 1016.00 427.00
C 1023.97 419.03 1032.25 408.18 1040.75 400.75 C 1049.25 393.32 1058.39 381.81 1066.25 375.25 C 1074.11 368.69 1086.60 348.54 1098.00 357.00 Z"/>
</g>
<g fill="#FEEBD3" fill-opacity="1.00" stroke="None">
<path d="
M 659.00 349.00 
C 666.27 349.00 672.86 348.00 680.00 348.00
C 696.19 348.00 711.55 344.00 728.00 344.00
C 732.93 343.52 738.38 342.00 744.00 342.00
C 770.72 342.00 797.10 335.00 824.00 335.00
C 833.44 334.09 843.82 332.90 854.00 332.00
C 870.41 330.56 887.45 327.00 904.00 327.00
C 908.93 326.52 914.38 325.00 920.00 325.00
C 925.60 325.00 930.42 324.00 936.00 324.00
C 948.64 322.78 962.74 320.00 976.00 320.00
C 1005.55 320.00 1034.44 312.00 1064.00 312.00
C 1045.16 310.18 1023.06 313.82 1004.01 315.01 C 984.95 316.19 968.46 318.92 949.00 321.00 C 929.54 323.08 908.40 324.68 889.02 326.02 C 869.64 327.37 851.74 331.20 832.22 332.22 C 812.70 333.24 793.24 334.11 774.00 337.00 C 754.76 339.89 733.96 340.00 715.00 343.00 C 696.04 346.00 675.40 341.84 659.00 349.00 Z"/>
</g>
<g fill="#F5AF79" fill-opacity="1.00" stroke="None">
<path d="
M 936.00 324.00 
C 949.52 324.00 963.29 321.23 976.00 320.00
C 962.74 320.00 948.64 322.78 936.00 324.00 Z"/>
</g>
<g fill="#FDBD8D" fill-opacity="1.00" stroke="None">
<path d="
M 904.00 327.00 
C 909.62 327.00 915.07 325.48 920.00 325.00
C 914.38 325.00 908.93 326.52 904.00 327.00 Z"/>
</g>
<g fill="#F5A56F" fill-opacity="1.00" stroke="None">
<path d="
M 824.00 335.00 
C 833.69 335.00 844.96 333.84 854.00 332.00
C 843.82 332.90 833.44 334.09 824.00 335.00 Z"/>
</g>
<g fill="#F6AA75" fill-opacity="1.00" stroke="None">
<path d="
M 728.00 344.00 
C 733.62 344.00 739.07 342.48 744.00 342.00
C 738.38 342.00 732.93 343.52 728.00 344.00 Z"/>
</g>
<g fill="#F9BE92" fill-opacity="1.00" stroke="None">
<path d="
M 659.00 349.00 
C 659.00 349.00 658.50 349.00 658.00 349.00
C 657.75 349.25 658.00 350.00 658.00 350.00
C 665.71 350.00 673.11 348.67 680.00 348.00
C 672.86 348.00 666.27 349.00 659.00 349.00 Z"/>
</g>
<g fill="#FEEED7" fill-opacity="1.00" stroke="None">
<path d="
M 550.00 360.00 
C 558.97 359.82 567.09 358.00 576.00 358.00
C 584.28 358.00 591.74 356.00 600.00 356.00
C 604.93 355.52 610.38 354.00 616.00 354.00
C 617.00 354.00 618.00 354.00 619.00 354.00
C 630.19 351.54 644.04 350.00 656.00 350.00
C 656.50 350.00 657.50 350.00 658.00 350.00
C 658.00 350.00 657.75 349.25 658.00 349.00
C 621.88 349.01 585.21 354.86 550.00 360.00 Z"/>
</g>
<g fill="#F6B786" fill-opacity="1.00" stroke="None">
<path d="
M 619.00 354.00 
C 630.28 354.00 646.11 354.20 656.00 350.00
C 644.04 350.00 630.19 351.54 619.00 354.00 Z"/>
</g>
<g fill="#F9B884" fill-opacity="1.00" stroke="None">
<path d="
M 600.00 356.00 
C 605.62 356.00 611.07 355.08 616.00 354.00
C 610.38 354.00 604.93 355.52 600.00 356.00 Z"/>
</g>
<g fill="#FDFCFB" fill-opacity="1.00" stroke="None">
<path d="
M 1016.00 427.00 
C 1006.81 442.12 985.44 459.39 971.25 474.25 C 957.05 489.10 940.00 509.64 924.00 520.00
C 912.16 531.84 898.95 543.19 888.00 556.00
C 881.73 563.34 874.80 570.01 867.75 576.75 C 860.71 583.49 854.09 591.52 847.25 598.25 C 840.41 604.97 833.85 612.54 826.75 618.75 C 819.65 624.96 813.06 638.34 804.00 632.00
C 805.43 633.43 806.81 635.43 808.00 637.00
C 815.41 634.98 817.75 624.06 826.00 624.00
C 818.01 636.34 807.10 640.14 798.75 629.25 C 790.40 618.36 779.71 614.65 771.92 605.08 C 764.13 595.51 754.38 589.19 745.75 580.25 C 737.12 571.31 727.74 565.13 719.75 556.25 C 711.76 547.37 701.82 540.48 693.25 531.75 C 684.67 523.03 676.33 515.35 667.75 506.25 C 659.17 497.15 650.31 490.68 641.75 482.25 C 633.20 473.82 623.68 466.53 615.25 457.75 C 606.81 448.97 596.99 442.10 589.08 434.91 C 581.18 427.72 573.82 417.60 563.92 410.08 C 554.01 402.56 547.48 391.76 535.33 387.67 C 523.18 383.59 509.36 401.98 516.00 414.00 C 522.64 426.03 533.63 428.35 541.00 440.00
C 541.67 440.87 542.30 441.30 543.00 442.00
C 554.25 447.78 562.47 460.46 573.30 468.70 C 584.13 476.95 593.73 487.92 604.25 497.75 C 614.76 507.58 624.60 515.00 634.00 526.00
C 638.08 530.77 649.72 538.63 651.00 544.00
C 651.30 544.24 652.00 544.00 652.00 544.00
C 656.55 546.23 659.32 551.92 663.00 555.00
C 668.31 558.79 672.99 563.72 678.00 568.00
C 684.14 573.24 689.74 577.91 695.00 584.00
C 697.24 586.22 699.50 589.95 702.00 592.00
C 718.12 601.37 732.23 620.47 746.00 632.00
C 756.42 640.73 764.60 651.45 775.25 659.75 C 785.90 668.06 795.65 683.20 810.00 683.00
C 826.91 680.39 834.62 661.26 847.25 651.25 C 859.87 641.24 870.52 626.16 882.77 614.77 C 895.02 603.38 906.84 590.81 918.75 578.75 C 930.66 566.70 943.12 554.88 955.00 543.00
C 956.35 541.42 957.69 539.53 959.00 538.00
C 990.05 501.67 1020.15 470.78 1055.00 441.00
C 1060.79 436.05 1065.81 429.33 1072.00 425.00
C 1072.00 425.00 1071.80 424.40 1072.00 424.00
C 1075.77 416.29 1085.73 410.85 1090.23 404.23 C 1094.73 397.61 1104.65 390.73 1109.00 387.00
C 1116.01 378.21 1112.93 358.30 1099.00 357.00
C 1101.12 360.16 1090.32 356.46 1088.00 359.00
C 1088.64 355.05 1095.00 357.85 1098.00 357.00
C 1086.60 348.54 1074.11 368.69 1066.25 375.25 C 1058.39 381.81 1049.25 393.32 1040.75 400.75 C 1032.25 408.18 1023.97 419.03 1016.00 427.00 Z"/>
</g>
<g fill="none" fill-opacity="0" stroke="None">
<path d="
M 1099.00 357.00 
C 1099.00 357.00 1098.50 357.00 1098.00 357.00
C 1095.00 357.85 1088.64 355.05 1088.00 359.00
C 1090.32 356.46 1101.12 360.16 1099.00 357.00 Z"/>
</g>
<g fill="#F6AF7D" fill-opacity="1.00" stroke="None">
<path d="
M 550.00 360.00 
C 531.89 360.36 514.38 365.00 496.00 365.00
C 491.32 365.45 484.63 367.55 480.00 368.00
C 511.92 368.00 544.88 361.01 576.00 358.00
C 567.09 358.00 558.97 359.82 550.00 360.00 Z"/>
</g>
<g fill="#FFE8D0" fill-opacity="1.00" stroke="None">
<path d="
M 425.00 394.00 
C 432.03 389.42 436.17 380.08 444.00 376.00
C 445.03 375.46 445.97 375.36 447.00 375.00
C 454.71 370.64 462.41 368.00 472.00 368.00
C 474.67 368.00 477.33 368.00 480.00 368.00
C 484.63 367.55 491.32 365.45 496.00 365.00
C 483.89 365.00 461.83 366.39 451.69 370.69 C 441.56 375.00 427.46 382.78 425.00 394.00 Z"/>
</g>
<g fill="#F6AF79" fill-opacity="1.00" stroke="None">
<path d="
M 447.00 375.00 
C 455.12 372.14 463.65 368.81 472.00 368.00
C 462.41 368.00 454.71 370.64 447.00 375.00 Z"/>
</g>
<g fill="#F2A571" fill-opacity="1.00" stroke="None">
<path d="
M 425.00 394.00 
C 425.00 394.00 425.11 394.53 425.00 395.00
C 423.93 399.65 420.09 404.01 418.00 408.00
C 417.07 410.42 416.77 412.54 416.00 415.00
C 414.44 420.00 413.18 424.88 412.00 430.00
C 418.96 410.49 425.56 388.89 444.00 376.00
C 436.17 380.08 432.03 389.42 425.00 394.00 Z"/>
</g>
<g fill="#FFEACF" fill-opacity="1.00" stroke="None">
<path d="
M 521.00 388.00 
C 497.38 406.84 528.32 426.96 541.00 440.00
C 533.63 428.35 522.64 426.03 516.00 414.00 C 509.36 401.98 523.18 383.59 535.33 387.67 C 547.48 391.76 554.01 402.56 563.92 410.08 C 573.82 417.60 581.18 427.72 589.08 434.91 C 596.99 442.10 606.81 448.97 615.25 457.75 C 623.68 466.53 633.20 473.82 641.75 482.25 C 650.31 490.68 659.17 497.15 667.75 506.25 C 676.33 515.35 684.67 523.03 693.25 531.75 C 701.82 540.48 711.76 547.37 719.75 556.25 C 727.74 565.13 737.12 571.31 745.75 580.25 C 754.38 589.19 764.13 595.51 771.92 605.08 C 779.71 614.65 790.40 618.36 798.75 629.25 C 807.10 640.14 818.01 636.34 826.00 624.00
C 817.75 624.06 815.41 634.98 808.00 637.00
C 806.81 635.43 805.43 633.43 804.00 632.00
C 797.35 625.35 790.21 618.69 783.00 613.00
C 775.00 606.69 768.18 599.18 761.00 592.00
C 721.36 558.13 682.84 520.84 646.00 484.00
C 641.54 479.54 636.62 475.35 632.00 471.00
C 626.10 466.57 621.16 461.31 616.00 456.00
C 613.25 453.58 610.09 450.64 607.00 448.00
C 601.01 442.88 595.47 437.47 590.00 432.00
C 584.48 426.48 578.17 420.32 572.00 416.00
C 567.74 413.02 564.56 408.56 561.00 405.00
C 549.59 395.25 537.55 377.86 521.00 388.00 Z"/>
</g>
<g fill="#FFE3C6" fill-opacity="1.00" stroke="None">
<path d="
M 1072.00 424.00 
C 1079.83 421.43 1084.80 411.40 1090.75 405.75 C 1096.70 400.11 1103.86 393.45 1109.00 387.00
C 1104.65 390.73 1094.73 397.61 1090.23 404.23 C 1085.73 410.85 1075.77 416.29 1072.00 424.00 Z"/>
</g>
<g fill="#F4AB77" fill-opacity="1.00" stroke="None">
<path d="
M 603.00 499.00 
C 593.58 489.58 584.70 479.96 574.00 472.00
C 563.33 464.07 554.35 453.27 545.00 444.00
C 544.13 443.33 543.70 442.70 543.00 442.00
C 542.30 441.30 541.67 440.87 541.00 440.00
C 528.32 426.96 497.38 406.84 521.00 388.00
C 501.02 400.24 516.94 421.76 529.92 432.08 C 542.89 442.41 553.64 454.89 566.25 465.75 C 578.86 476.62 589.51 489.56 603.00 499.00 Z"/>
</g>
<g fill="#FEDEBD" fill-opacity="1.00" stroke="None">
<path d="
M 418.00 408.00 
C 420.09 404.01 423.93 399.65 425.00 395.00
C 421.15 396.57 419.35 404.48 418.00 408.00 Z"/>
</g>
<g fill="#FEC89C" fill-opacity="1.00" stroke="None">
<path d="
M 572.00 416.00 
C 568.22 412.90 564.85 408.29 561.00 405.00
C 564.56 408.56 567.74 413.02 572.00 416.00 Z"/>
</g>
<g fill="#FFDDBC" fill-opacity="1.00" stroke="None">
<path d="
M 409.00 440.00 
C 409.36 438.76 410.68 436.21 411.00 435.00
C 411.28 433.18 411.60 431.72 412.00 430.00
C 413.18 424.88 414.44 420.00 416.00 415.00
C 412.95 421.91 408.68 431.64 409.00 440.00 Z"/>
</g>
<g fill="#FAC095" fill-opacity="1.00" stroke="None">
<path d="
M 1055.00 441.00 
C 1022.98 473.02 991.62 505.38 959.00 538.00
C 957.69 539.53 956.35 541.42 955.00 543.00
C 947.37 551.93 938.49 559.80 930.25 568.25 C 922.01 576.70 913.71 585.14 905.75 593.75 C 897.79 602.36 888.09 609.97 881.25 619.25 C 874.41 628.52 861.02 634.75 856.00 645.00
C 867.81 636.72 877.00 623.51 887.75 613.75 C 898.50 603.99 907.35 592.14 918.25 582.25 C 929.14 572.36 938.95 561.44 948.75 550.75 C 958.56 540.07 970.74 530.14 980.25 519.25 C 989.75 508.36 1000.90 498.36 1010.75 487.75 C 1020.61 477.15 1032.74 467.77 1041.75 456.75 C 1050.76 445.73 1065.83 437.62 1072.00 425.00
C 1065.81 429.33 1060.79 436.05 1055.00 441.00 Z"/>
</g>
<g fill="#FFEACF" fill-opacity="1.00" stroke="None">
<path d="
M 965.00 478.00 
C 958.59 485.50 950.90 492.10 944.00 499.00
C 937.88 506.17 930.71 513.29 924.00 520.00
C 940.00 509.64 957.05 489.10 971.25 474.25 C 985.44 459.39 1006.81 442.12 1016.00 427.00
C 999.21 443.79 980.49 459.87 965.00 478.00 Z"/>
</g>
<g fill="#F7AF79" fill-opacity="1.00" stroke="None">
<path d="
M 607.00 448.00 
C 601.49 442.49 595.81 436.23 590.00 432.00
C 595.47 437.47 601.01 442.88 607.00 448.00 Z"/>
</g>
<g fill="#EFA872" fill-opacity="1.00" stroke="None">
<path d="
M 409.00 440.00 
C 409.02 440.50 409.00 441.50 409.00 442.00
C 409.00 443.86 409.38 446.18 409.00 448.00
C 411.21 445.85 410.50 438.26 411.00 435.00
C 410.68 436.21 409.36 438.76 409.00 440.00 Z"/>
</g>
<g fill="#FEF4DF" fill-opacity="1.00" stroke="None">
<path d="
M 543.00 442.00 
C 543.70 442.70 544.13 443.33 545.00 444.00
C 555.69 452.18 563.96 463.25 574.00 472.00
C 584.70 479.96 593.58 489.58 603.00 499.00
C 607.35 503.35 612.27 507.95 617.00 512.00
C 622.60 516.78 628.61 521.57 634.00 526.00
C 624.60 515.00 614.76 507.58 604.25 497.75 C 593.73 487.92 584.13 476.95 573.30 468.70 C 562.47 460.46 554.25 447.78 543.00 442.00 Z"/>
</g>
<g fill="#FEF6E3" fill-opacity="1.00" stroke="None">
<path d="
M 959.00 538.00 
C 991.62 505.38 1022.98 473.02 1055.00 441.00
C 1020.15 470.78 990.05 501.67 959.00 538.00 Z"/>
</g>
<g fill="none" fill-opacity="0" stroke="None">
<path d="
M 253.00 448.00 
C 304.67 447.98 356.33 447.98 408.00 448.00
C 408.00 448.00 408.74 448.25 409.00 448.00
C 409.38 446.18 409.00 443.86 409.00 442.00
C 406.72 451.63 389.99 445.74 381.00 447.00 C 372.01 448.26 358.80 446.17 349.00 447.00 C 339.20 447.83 325.88 446.03 316.00 447.00 C 306.12 447.97 293.29 445.19 284.00 447.00 C 274.71 448.81 260.18 442.69 253.00 448.00 Z"/>
</g>
<g fill="#FED4B0" fill-opacity="1.00" stroke="None">
<path d="
M 574.00 472.00 
C 563.96 463.25 555.69 452.18 545.00 444.00
C 554.35 453.27 563.33 464.07 574.00 472.00 Z"/>
</g>
<g fill="#FFECD5" fill-opacity="1.00" stroke="None">
<path d="
M 1152.00 447.00 
C 1152.00 447.00 1152.17 447.57 1152.00 448.00
C 1148.36 457.27 1141.62 466.81 1136.00 475.00
C 1139.10 471.41 1143.56 463.69 1146.23 460.23 C 1148.90 456.77 1154.24 445.50 1152.00 447.00 Z"/>
</g>
<g fill="#FEF0D7" fill-opacity="1.00" stroke="None">
<path d="
M 414.00 540.00 
C 411.26 529.09 409.96 523.77 409.22 511.78 C 408.48 499.78 395.16 502.94 384.00 503.00 C 372.84 503.06 361.02 503.04 350.00 503.00 C 338.98 502.96 327.77 503.17 317.00 503.00 C 306.23 502.83 293.27 503.39 283.00 503.00 C 272.73 502.61 258.74 504.32 249.98 502.02 C 241.21 499.73 235.01 493.67 232.00 486.00
C 227.31 474.05 231.70 460.66 242.00 453.00
C 245.20 450.62 248.91 449.69 252.00 448.00
C 247.90 447.35 244.86 451.50 241.00 449.00
C 240.46 451.87 234.95 458.52 234.00 453.00
C 227.46 465.99 227.53 481.89 233.00 495.00
C 240.76 496.68 244.80 504.92 255.00 504.00 C 265.20 503.08 277.48 504.45 288.00 504.00 C 298.52 503.55 309.35 504.25 320.00 504.00 C 330.65 503.75 342.35 504.22 353.00 504.00 C 363.65 503.78 374.49 504.33 385.00 504.00 C 395.51 503.67 408.59 501.36 409.00 513.00 C 409.42 524.64 410.08 530.37 414.00 540.00 Z"/>
</g>
<g fill="#EC9455" fill-opacity="1.00" stroke="None">
<path d="
M 242.00 453.00 
C 248.22 449.68 256.10 448.76 265.00 449.00 C 273.90 449.24 284.77 449.00 294.00 449.00 C 303.23 449.00 313.72 449.23 323.00 449.00 C 332.28 448.77 342.94 449.61 352.00 449.00 C 361.06 448.39 372.55 450.41 381.00 449.00 C 389.45 447.59 401.59 452.74 408.00 448.00
C 356.33 447.98 304.67 447.98 253.00 448.00
C 253.00 448.00 252.50 448.04 252.00 448.00
C 248.91 449.69 245.20 450.62 242.00 453.00 Z"/>
</g>
<g fill="#F8B382" fill-opacity="1.00" stroke="None">
<path d="
M 1110.00 510.00 
C 1119.25 498.74 1127.54 487.33 1136.00 475.00
C 1141.62 466.81 1148.36 457.27 1152.00 448.00
C 1145.87 450.49 1142.79 463.54 1137.92 468.92 C 1133.06 474.31 1128.84 483.91 1123.77 489.77 C 1118.70 495.64 1114.04 503.33 1110.00 510.00 Z"/>
</g>
<g fill="#FAB684" fill-opacity="1.00" stroke="None">
<path d="
M 632.00 471.00 
C 626.91 466.20 621.47 460.81 616.00 456.00
C 621.16 461.31 626.10 466.57 632.00 471.00 Z"/>
</g>
<g fill="#FCBF92" fill-opacity="1.00" stroke="None">
<path d="
M 944.00 499.00 
C 950.90 492.10 958.59 485.50 965.00 478.00
C 958.11 484.89 950.40 491.51 944.00 499.00 Z"/>
</g>
<g fill="#F19D63" fill-opacity="1.00" stroke="None">
<path d="
M 761.00 592.00 
C 768.75 598.62 775.56 606.13 783.00 613.00
C 790.21 618.69 797.35 625.35 804.00 632.00
C 813.06 638.34 819.65 624.96 826.75 618.75 C 833.85 612.54 840.41 604.97 847.25 598.25 C 854.09 591.52 860.71 583.49 867.75 576.75 C 874.80 570.01 881.73 563.34 888.00 556.00
C 879.99 564.01 871.94 570.51 864.25 579.25 C 856.56 587.98 848.29 593.14 840.75 602.75 C 833.21 612.36 826.08 615.84 817.75 626.75 C 809.42 637.67 800.84 627.74 792.70 619.30 C 784.56 610.87 775.77 605.41 767.75 597.25 C 759.74 589.09 751.87 582.03 743.75 574.25 C 735.62 566.48 726.55 560.42 718.75 552.25 C 710.95 544.07 702.69 537.18 694.75 529.25 C 686.81 521.32 678.90 513.95 670.75 506.25 C 662.61 498.54 654.38 490.75 646.00 484.00
C 682.84 520.84 721.36 558.13 761.00 592.00 Z"/>
</g>
<g fill="#F8B583" fill-opacity="1.00" stroke="None">
<path d="
M 414.00 540.00 
C 414.67 541.66 414.69 542.73 416.00 544.00
C 415.76 533.82 411.03 528.47 411.00 518.00 C 410.97 507.53 408.93 499.82 397.00 502.00 C 385.07 504.18 377.83 501.05 367.00 502.00 C 356.17 502.95 347.27 501.64 337.00 502.00 C 326.73 502.36 315.84 501.96 306.00 502.00 C 296.16 502.04 285.12 502.27 276.00 502.00 C 266.88 501.73 255.00 503.43 247.70 500.31 C 240.39 497.18 235.32 492.42 232.00 486.00
C 235.01 493.67 241.21 499.73 249.98 502.02 C 258.74 504.32 272.73 502.61 283.00 503.00 C 293.27 503.39 306.23 502.83 317.00 503.00 C 327.77 503.17 338.98 502.96 350.00 503.00 C 361.02 503.04 372.84 503.06 384.00 503.00 C 395.16 502.94 408.48 499.78 409.22 511.78 C 409.96 523.77 411.26 529.09 414.00 540.00 Z"/>
</g>
<g fill="#FED1A9" fill-opacity="1.00" stroke="None">
<path d="
M 625.00 520.00 
C 633.84 527.56 642.29 536.89 651.00 544.00
C 649.72 538.63 638.08 530.77 634.00 526.00
C 628.61 521.57 622.60 516.78 617.00 512.00
C 619.61 514.61 622.11 517.53 625.00 520.00 Z"/>
</g>
<g fill="#F3A671" fill-opacity="1.00" stroke="None">
<path d="
M 702.00 592.00 
C 699.50 589.95 697.24 586.22 695.00 584.00
C 689.53 578.59 683.49 573.49 678.00 568.00
C 672.99 563.72 668.31 558.79 663.00 555.00
C 659.05 552.18 654.74 547.93 652.00 544.00
C 652.00 544.00 651.30 544.24 651.00 544.00
C 642.29 536.89 633.84 527.56 625.00 520.00
C 637.37 532.37 649.86 545.47 663.25 556.75 C 676.63 568.03 687.08 583.33 702.00 592.00 Z"/>
</g>
<g fill="#FEF1DA" fill-opacity="1.00" stroke="None">
<path d="
M 810.00 683.00 
C 830.93 682.71 839.28 653.50 856.00 646.00
C 856.00 646.00 855.80 645.40 856.00 645.00
C 861.02 634.75 874.41 628.52 881.25 619.25 C 888.09 609.97 897.79 602.36 905.75 593.75 C 913.71 585.14 922.01 576.70 930.25 568.25 C 938.49 559.80 947.37 551.93 955.00 543.00
C 943.12 554.88 930.66 566.70 918.75 578.75 C 906.84 590.81 895.02 603.38 882.77 614.77 C 870.52 626.16 859.87 641.24 847.25 651.25 C 834.62 661.26 826.91 680.39 810.00 683.00 Z"/>
</g>
<g fill="#FFD8B6" fill-opacity="1.00" stroke="None">
<path d="
M 663.00 555.00 
C 659.32 551.92 656.55 546.23 652.00 544.00
C 654.74 547.93 659.05 552.18 663.00 555.00 Z"/>
</g>
<g fill="#F3A46A" fill-opacity="1.00" stroke="None">
<path d="
M 416.00 549.00 
C 417.01 554.25 420.14 560.97 422.00 566.00
C 420.65 560.95 420.14 548.17 416.00 545.00
C 416.00 546.32 415.91 547.68 416.00 549.00 Z"/>
</g>
<g fill="#FFE1BF" fill-opacity="1.00" stroke="None">
<path d="
M 424.00 575.00 
C 423.87 574.54 424.06 573.49 424.00 573.00
C 423.70 570.60 422.61 568.30 422.00 566.00
C 420.14 560.97 417.01 554.25 416.00 549.00
C 416.63 557.85 420.82 567.18 424.00 575.00 Z"/>
</g>
<g fill="#F6B481" fill-opacity="1.00" stroke="None">
<path d="
M 1064.00 575.00 
C 1067.65 572.26 1069.85 567.77 1072.00 564.00
C 1069.29 567.53 1065.56 570.65 1064.00 575.00 Z"/>
</g>
<g fill="#FFE9CD" fill-opacity="1.00" stroke="None">
<path d="
M 695.00 584.00 
C 689.74 577.91 684.14 573.24 678.00 568.00
C 683.49 573.49 689.53 578.59 695.00 584.00 Z"/>
</g>
<g fill="#F7B586" fill-opacity="1.00" stroke="None">
<path d="
M 424.00 575.00 
C 425.51 580.43 428.07 585.71 430.00 591.00
C 430.22 591.25 431.00 591.00 431.00 591.00
C 429.15 584.68 426.41 578.92 424.00 573.00
C 424.06 573.49 423.87 574.54 424.00 575.00 Z"/>
</g>
<g fill="#F9B88B" fill-opacity="1.00" stroke="None">
<path d="
M 1024.00 631.00 
C 1026.80 628.31 1028.67 624.17 1032.00 622.00
C 1032.00 622.00 1031.76 621.32 1032.00 621.00
C 1041.52 608.54 1050.70 595.50 1060.00 583.00
C 1061.66 580.76 1062.19 578.46 1063.00 576.00
C 1055.29 582.40 1050.07 595.90 1043.75 603.75 C 1037.43 611.61 1025.89 621.29 1024.00 631.00 Z"/>
</g>
<g fill="#FEF4E1" fill-opacity="1.00" stroke="None">
<path d="
M 1032.00 621.00 
C 1039.61 617.60 1041.43 608.21 1046.75 602.75 C 1052.06 597.28 1056.68 588.89 1060.00 583.00
C 1050.70 595.50 1041.52 608.54 1032.00 621.00 Z"/>
</g>
<g fill="#F6B281" fill-opacity="1.00" stroke="None">
<path d="
M 211.00 602.00 
C 209.83 604.02 208.70 605.86 208.00 608.00
C 211.39 600.15 222.17 591.82 230.00 590.00
C 222.02 590.89 214.96 595.19 211.00 602.00 Z"/>
</g>
<g fill="#F8771F" fill-opacity="1.00" stroke="None">
<path d="
M 208.00 608.00 
C 203.85 620.79 209.02 634.52 221.00 640.00
C 238.60 648.04 265.31 642.69 285.00 643.00 C 304.69 643.31 331.99 647.08 350.00 640.00
C 350.43 639.83 351.55 640.15 352.00 640.00
C 376.96 619.50 359.37 585.94 328.00 590.00 C 296.63 594.06 261.64 586.47 230.00 590.00
C 222.17 591.82 211.39 600.15 208.00 608.00 Z"/>
</g>
<g fill="#FFDFBE" fill-opacity="1.00" stroke="None">
<path d="
M 446.00 624.00 
C 443.82 619.57 441.73 614.52 440.00 610.00
C 437.31 604.86 433.83 599.73 432.00 594.00
C 431.68 593.00 431.29 591.99 431.00 591.00
C 431.00 591.00 430.22 591.25 430.00 591.00
C 433.50 600.61 438.55 616.86 446.00 624.00 Z"/>
</g>
<g fill="#FDC599" fill-opacity="1.00" stroke="None">
<path d="
M 783.00 613.00 
C 775.56 606.13 768.75 598.62 761.00 592.00
C 768.18 599.18 775.00 606.69 783.00 613.00 Z"/>
</g>
<g fill="#F2A66E" fill-opacity="1.00" stroke="None">
<path d="
M 440.00 610.00 
C 437.82 604.31 434.84 599.02 432.00 594.00
C 433.83 599.73 437.31 604.86 440.00 610.00 Z"/>
</g>
<g fill="#FEE4C8" fill-opacity="1.00" stroke="None">
<path d="
M 227.00 644.00 
C 224.81 643.24 222.90 641.19 221.00 640.00
C 209.02 634.52 203.85 620.79 208.00 608.00
C 208.70 605.86 209.83 604.02 211.00 602.00
C 199.62 616.85 206.32 641.55 227.00 644.00 Z"/>
</g>
<g fill="none" fill-opacity="0" stroke="None">
<path d="
M 1024.00 631.00 
C 1024.00 631.00 1024.16 631.56 1024.00 632.00
C 1021.09 640.07 1013.05 646.48 1008.00 653.00
C 1007.81 653.41 1008.19 654.59 1008.00 655.00
C 1018.08 644.09 1024.41 633.37 1032.00 622.00
C 1028.67 624.17 1026.80 628.31 1024.00 631.00 Z"/>
</g>
<g fill="#FEDBB7" fill-opacity="1.00" stroke="None">
<path d="
M 462.00 649.00 
C 457.06 641.35 453.26 631.51 447.00 625.00
C 445.92 630.89 457.90 643.91 462.00 649.00 Z"/>
</g>
<g fill="#F9BB8E" fill-opacity="1.00" stroke="None">
<path d="
M 856.00 646.00 
C 839.28 653.50 830.93 682.71 810.00 683.00
C 795.65 683.20 785.90 668.06 775.25 659.75 C 764.60 651.45 756.42 640.73 746.00 632.00
C 754.73 640.56 761.99 649.10 771.25 656.75 C 780.50 664.40 787.98 672.42 797.25 680.75 C 806.53 689.08 825.78 681.67 831.70 671.70 C 837.61 661.73 850.93 656.37 856.00 646.00 Z"/>
</g>
<g fill="#FCC49A" fill-opacity="1.00" stroke="None">
<path d="
M 1008.00 653.00 
C 1013.05 646.48 1021.09 640.07 1024.00 632.00
C 1019.24 634.13 1010.53 647.70 1008.00 653.00 Z"/>
</g>
<g fill="#F09556" fill-opacity="1.00" stroke="None">
<path d="
M 227.00 644.00 
C 227.49 644.06 228.50 644.00 229.00 644.00
C 242.43 644.00 256.65 644.39 270.00 644.00 C 283.35 643.61 299.04 645.00 312.00 644.00 C 324.96 643.00 340.07 648.01 350.00 640.00
C 331.99 647.08 304.69 643.31 285.00 643.00 C 265.31 642.69 238.60 648.04 221.00 640.00
C 222.90 641.19 224.81 643.24 227.00 644.00 Z"/>
</g>
<g fill="#FFE0C2" fill-opacity="1.00" stroke="None">
<path d="
M 229.00 644.00 
C 240.53 648.90 257.97 643.67 271.00 645.00 C 284.03 646.33 300.99 644.89 314.00 645.00 C 327.01 645.11 342.12 648.12 352.00 640.00
C 351.55 640.15 350.43 639.83 350.00 640.00
C 340.07 648.01 324.96 643.00 312.00 644.00 C 299.04 645.00 283.35 643.61 270.00 644.00 C 256.65 644.39 242.43 644.00 229.00 644.00 Z"/>
</g>
<g fill="#FEEFD9" fill-opacity="1.00" stroke="None">
<path d="
M 997.00 670.00 
C 994.72 673.77 992.44 677.48 990.00 681.00
C 994.60 676.35 999.29 670.42 1002.00 664.00
C 1000.43 665.84 998.50 667.52 997.00 670.00 Z"/>
</g>
<g fill="#FABE92" fill-opacity="1.00" stroke="None">
<path d="
M 962.00 719.00 
C 971.56 707.01 981.08 693.87 990.00 681.00
C 992.44 677.48 994.72 673.77 997.00 670.00
C 984.74 684.92 969.91 702.53 962.00 719.00 Z"/>
</g>
<g fill="none" fill-opacity="0" stroke="None">
<path d="
M 237.00 731.00 
C 257.87 728.22 279.87 731.58 301.00 731.00 C 322.13 730.42 344.87 729.85 366.00 731.00 C 387.13 732.15 410.23 727.35 431.00 731.00
C 416.67 726.53 398.65 731.18 383.00 730.00 C 367.35 728.82 349.86 730.13 334.00 730.00 C 318.14 729.87 300.76 729.17 285.00 730.00 C 269.24 730.83 251.68 727.19 237.00 731.00 Z"/>
</g>
<g fill="#F0AC7D" fill-opacity="1.00" stroke="None">
<path d="
M 232.00 732.00 
C 230.27 732.58 227.47 734.90 226.00 736.00
C 244.95 725.21 272.89 733.56 295.00 732.00 C 317.11 730.44 345.51 731.20 368.00 732.00 C 390.49 732.80 418.43 727.02 439.00 735.00
C 436.61 733.71 433.86 731.89 431.00 731.00
C 410.23 727.35 387.13 732.15 366.00 731.00 C 344.87 729.85 322.13 730.42 301.00 731.00 C 279.87 731.58 257.87 728.22 237.00 731.00
C 235.52 731.20 233.54 731.67 232.00 732.00 Z"/>
</g>
<g fill="#FFE6C6" fill-opacity="1.00" stroke="None">
<path d="
M 454.00 768.00 
C 452.87 773.44 446.92 780.80 442.00 784.00
C 440.31 785.10 439.10 785.29 437.00 786.00
C 418.69 794.83 393.17 787.71 372.00 789.00 C 350.83 790.29 324.56 789.86 303.00 789.00 C 281.44 788.14 255.34 793.04 235.00 788.00
C 231.60 787.16 227.92 785.91 225.00 784.00
C 212.24 775.68 208.78 759.43 216.00 747.00
C 218.48 742.73 222.01 739.00 226.00 736.00
C 227.47 734.90 230.27 732.58 232.00 732.00
C 214.48 735.77 203.67 758.97 215.08 775.92 C 226.50 792.87 249.86 790.41 270.00 790.00 C 290.14 789.60 318.50 789.93 339.00 790.00 C 359.50 790.07 388.80 789.40 408.00 790.00 C 427.20 790.60 451.23 790.32 454.00 768.00 Z"/>
</g>
<g fill="#F9761C" fill-opacity="1.00" stroke="None">
<path d="
M 226.00 736.00 
C 222.01 739.00 218.48 742.73 216.00 747.00
C 210.48 759.64 213.55 775.23 225.00 784.00
C 227.92 785.91 231.60 787.16 235.00 788.00
C 256.88 790.71 281.00 787.45 303.00 788.00 C 325.00 788.55 349.33 789.26 371.00 788.00 C 392.67 786.74 416.96 792.82 437.00 786.00
C 439.10 785.29 440.31 785.10 442.00 784.00
C 452.65 775.85 455.72 759.89 451.00 748.00
C 448.44 741.55 445.14 738.31 439.00 735.00
C 418.43 727.02 390.49 732.80 368.00 732.00 C 345.51 731.20 317.11 730.44 295.00 732.00 C 272.89 733.56 244.95 725.21 226.00 736.00 Z"/>
</g>
<g fill="#FBB586" fill-opacity="1.00" stroke="None">
<path d="
M 528.00 750.00 
C 525.60 745.78 522.86 741.92 520.00 738.00
C 522.49 742.29 524.93 746.27 528.00 750.00 Z"/>
</g>
<g fill="#F5AB75" fill-opacity="1.00" stroke="None">
<path d="
M 225.00 784.00 
C 213.55 775.23 210.48 759.64 216.00 747.00
C 208.78 759.43 212.24 775.68 225.00 784.00 Z"/>
</g>
<g fill="#F39A60" fill-opacity="1.00" stroke="None">
<path d="
M 442.00 784.00 
C 446.92 780.80 452.87 773.44 454.00 768.00
C 454.90 760.71 454.18 753.89 451.00 748.00
C 455.72 759.89 452.65 775.85 442.00 784.00 Z"/>
</g>
<g fill="#F6AC78" fill-opacity="1.00" stroke="None">
<path d="
M 921.00 776.00 
C 922.80 774.05 925.63 771.16 927.00 769.00
C 927.39 768.08 927.62 766.81 928.00 766.00
C 925.01 769.20 922.50 771.78 921.00 776.00 Z"/>
</g>
<g fill="#FFEED8" fill-opacity="1.00" stroke="None">
<path d="
M 921.00 776.00 
C 920.76 776.26 920.13 776.65 920.00 777.00
C 918.31 781.52 914.62 784.23 912.00 788.00
C 911.29 789.41 911.10 790.62 910.00 792.00
C 915.76 787.52 923.50 777.20 927.00 769.00
C 925.63 771.16 922.80 774.05 921.00 776.00 Z"/>
</g>
<g fill="#F5AE7D" fill-opacity="1.00" stroke="None">
<path d="
M 912.00 788.00 
C 914.62 784.23 918.31 781.52 920.00 777.00
C 916.45 779.67 913.92 784.20 912.00 788.00 Z"/>
</g>
<g fill="#F7B07C" fill-opacity="1.00" stroke="None">
<path d="
M 554.00 792.00 
C 555.50 794.48 558.39 796.68 560.00 799.00
C 557.14 793.80 553.73 789.46 550.00 785.00
C 551.41 787.28 552.70 789.86 554.00 792.00 Z"/>
</g>
<g fill="#EFA771" fill-opacity="1.00" stroke="None">
<path d="
M 235.00 788.00 
C 255.34 793.04 281.44 788.14 303.00 789.00 C 324.56 789.86 350.83 790.29 372.00 789.00 C 393.17 787.71 418.69 794.83 437.00 786.00
C 416.96 792.82 392.67 786.74 371.00 788.00 C 349.33 789.26 325.00 788.55 303.00 788.00 C 281.00 787.45 256.88 790.71 235.00 788.00 Z"/>
</g>
<g fill="#FFE5C5" fill-opacity="1.00" stroke="None">
<path d="
M 574.00 823.00 
C 571.46 816.22 565.81 809.34 562.00 803.00
C 561.22 801.71 560.66 800.20 560.00 799.00
C 558.39 796.68 555.50 794.48 554.00 792.00
C 557.28 800.67 566.31 817.22 574.00 823.00 Z"/>
</g>
<g fill="#F6A469" fill-opacity="1.00" stroke="None">
<path d="
M 574.00 823.00 
C 574.13 823.35 574.76 823.74 575.00 824.00
C 576.31 818.32 565.10 807.12 562.00 803.00
C 565.81 809.34 571.46 816.22 574.00 823.00 Z"/>
</g>
<g fill="#F4AE7A" fill-opacity="1.00" stroke="None">
<path d="
M 864.00 855.00 
C 868.04 849.22 874.06 843.82 878.00 838.00
C 878.77 836.55 879.20 834.41 880.00 833.00
C 874.55 839.31 867.29 847.29 864.00 855.00 Z"/>
</g>
<g fill="#FFE7C7" fill-opacity="1.00" stroke="None">
<path d="
M 864.00 855.00 
C 863.61 855.92 863.38 857.19 863.00 858.00
C 868.24 852.10 874.18 845.14 878.00 838.00
C 874.06 843.82 868.04 849.22 864.00 855.00 Z"/>
</g>
<g fill="#FFEBD0" fill-opacity="1.00" stroke="None">
<path d="
M 592.00 851.00 
C 591.84 850.56 592.00 850.00 592.00 850.00
C 589.56 846.81 585.97 843.26 584.00 840.00
C 585.89 844.18 589.58 847.31 592.00 851.00 Z"/>
</g>
<g fill="#F7B280" fill-opacity="1.00" stroke="None">
<path d="
M 592.00 851.00 
C 592.49 852.40 593.32 853.67 594.00 855.00
C 600.37 864.30 607.21 873.68 614.00 883.00
C 623.05 892.79 633.26 902.99 643.00 912.00
C 646.91 914.99 650.75 917.66 655.00 920.00
C 628.38 900.60 612.12 874.50 592.00 850.00
C 592.00 850.00 591.84 850.56 592.00 851.00 Z"/>
</g>
<g fill="none" fill-opacity="0" stroke="None">
<path d="
M 630.00 902.00 
C 624.75 896.75 618.51 889.18 614.00 883.00
C 607.21 873.68 600.37 864.30 594.00 855.00
C 601.94 870.51 615.05 892.16 630.00 902.00 Z"/>
</g>
<g fill="#FED4AF" fill-opacity="1.00" stroke="None">
<path d="
M 630.00 902.00 
C 633.02 903.99 635.97 906.51 639.00 909.00
C 640.26 910.04 641.75 911.04 643.00 912.00
C 633.26 902.99 623.05 892.79 614.00 883.00
C 618.51 889.18 624.75 896.75 630.00 902.00 Z"/>
</g>
<g fill="#FFEED8" fill-opacity="1.00" stroke="None">
<path d="
M 668.00 928.00 
C 663.70 925.94 659.40 922.43 655.00 920.00
C 650.75 917.66 646.91 914.99 643.00 912.00
C 641.75 911.04 640.26 910.04 639.00 909.00
C 647.90 917.91 656.18 924.21 668.00 928.00 Z"/>
</g>
</svg>